<svg width="480" height="290" xmlns="http://www.w3.org/2000/svg">

 <g>
  <title>background</title>
  <rect fill="none" id="canvas_background" height="402" width="582" y="-1" x="-1"/>
 </g>
 <g>
  <title>Layer 1</title>
  <g transform="matrix(1,0,0,1,0,0) matrix(1,0,0,1,-0.5,-0.5) " id="surface2">
   <path id="svg_1" fill-rule="evenodd" fill="rgb(0.392157%,0.392157%,0.392157%)" d="m335.55078,108c-0.96875,-5.23437 -2.33594,-10.30078 -4.10156,-15.19922l8.30078,-13.35156l-9.89844,-17.14844l-15.80078,0.44922c-3.36719,-3.96484 -7.05078,-7.64844 -11.05078,-11.05078l0.5,-15.75l-17.14844,-9.89844l-13.35156,8.25c-4.93359,-1.76562 -10.01562,-3.13281 -15.25,-4.10156l-7.39844,-13.80078l-19.80078,0l-7.40234,13.80078c-5.26563,0.96875 -10.34766,2.33594 -15.25,4.10156l-13.34766,-8.25l-17.15234,9.89844l0.5,15.75c-4,3.40234 -7.69922,7.08594 -11.09766,11.05078l-15.69922,-0.44922l-9.90234,17.14844l8.25,13.30078c-1.76563,4.93359 -3.13281,10.01563 -4.09766,15.25l-6.65234,3.55078c1.46875,1.69922 2.31641,2.78125 2.55078,3.25c0.60156,0.76563 1.56641,1.4336 2.89844,2c0,0 0,0 0,0c0.30078,0.13281 0.60156,0.25 0.90234,0.34766c0.06641,0.03515 0.11719,0.05078 0.14844,0.05078c0.63281,0.23437 1.30078,0.44922 2,0.65234c0.03516,0.03125 0.08594,0.04688 0.15234,0.04688c0.36328,0.10156 0.73047,0.20312 1.09766,0.30078c0.03516,0 0.06641,0 0.10156,0c0.33203,0.10156 0.6836,0.18359 1.05078,0.25c0.06641,0 0.11328,0.01562 0.14844,0.05078c0.39844,0.06641 0.80078,0.13281 1.19922,0.19922c0.03516,0.03516 0.08594,0.05078 0.15234,0.05078c0.39844,0.06641 0.79688,0.13281 1.19922,0.19922c0,0 0.01563,0 0.05078,0c0.39844,0.06641 0.79688,0.13281 1.19922,0.19922c0.09766,0.03515 0.1836,0.05078 0.25,0.05078c0.83203,0.10156 1.66406,0.19922 2.5,0.30078c0.06641,0 0.14844,0.01563 0.25,0.05078c0.39844,0.03125 0.80078,0.06641 1.19922,0.09766c0.06641,0 0.11719,0 0.14844,0c0.40234,0.03515 0.78515,0.0664 1.15234,0.10156c0.06641,0 0.13281,0 0.19922,0c0.39844,0.03516 0.80078,0.06641 1.19922,0.10156c0.06641,0 0.13281,0 0.19922,0c0.36719,0.03125 0.71875,0.04688 1.05078,0.04688c0.06641,0 0.11719,0 0.15234,0c0.39844,0.03515 0.78125,0.05078 1.14844,0.05078c0.06641,0 0.13281,0 0.19922,0c0.40234,0.03516 0.76562,0.05078 1.10156,0.05078l147.05078,0c5.66407,-0.19922 10.08203,-1 13.25,-2.39844c3.19922,-1.36718 5.11328,-2.36718 5.75,-3c0.36328,-0.5664 0.75,-1.10156 1.14844,-1.60156c0.03516,-0.03516 0.06641,-0.06641 0.10156,-0.10156c0.4336,-0.5 0.86328,-0.98047 1.29688,-1.44922c0,0 0.01953,-0.01563 0.05078,-0.05078c0.90234,-0.89844 1.81641,-1.73047 2.75,-2.5c0.03516,0 0.03516,0 0,0c0.23437,-0.16406 0.44922,-0.31641 0.65234,-0.44922l-0.80078,-0.44922"/>
   <path id="svg_2" fill-rule="evenodd" fill="rgb(0.392157%,0.392157%,0.392157%)" d="m296.85156,69.89844c-0.70312,-0.73047 -1.43359,-1.44922 -2.20312,-2.14844c-0.13281,-0.13281 -0.28125,-0.28516 -0.44922,-0.44922c-0.69922,-0.63281 -1.39844,-1.25 -2.09766,-1.85156c-0.23437,-0.19922 -0.46875,-0.39844 -0.70312,-0.59766c-0.66406,-0.5664 -1.33203,-1.11718 -2,-1.65234c-0.29688,-0.23438 -0.61328,-0.46484 -0.94922,-0.69922c-0.63281,-0.5 -1.28125,-0.98437 -1.94922,-1.44922c-0.33203,-0.26562 -0.68359,-0.51562 -1.05078,-0.75c-0.63281,-0.43359 -1.26563,-0.86719 -1.89844,-1.30078c-0.43359,-0.26562 -0.85156,-0.53516 -1.25,-0.80078c-0.60156,-0.36719 -1.21875,-0.73438 -1.85156,-1.09766c-0.46484,-0.26953 -0.93359,-0.53515 -1.39844,-0.80078c-0.60156,-0.33594 -1.21875,-0.66797 -1.85156,-1c-0.46484,-0.26562 -0.94922,-0.51562 -1.44922,-0.75c-0.60156,-0.33594 -1.21484,-0.63281 -1.85156,-0.90234c-0.53125,-0.26563 -1.06641,-0.51563 -1.59766,-0.75c-0.60156,-0.26563 -1.19922,-0.51563 -1.80078,-0.75c-0.56641,-0.23047 -1.13281,-0.46485 -1.69922,-0.69922c-0.60156,-0.23438 -1.19922,-0.44922 -1.80078,-0.64844c-0.60156,-0.23437 -1.19922,-0.43359 -1.80078,-0.60156c-0.59766,-0.19922 -1.19922,-0.39844 -1.80078,-0.59766c-0.63281,-0.16797 -1.26563,-0.35156 -1.89844,-0.55078c-0.56641,-0.16797 -1.14844,-0.3164 -1.75,-0.44922c-0.66797,-0.16797 -1.33203,-0.3164 -2,-0.45312c-0.56641,-0.16406 -1.14844,-0.29688 -1.75,-0.39844c-0.69922,-0.13281 -1.39844,-0.26562 -2.10156,-0.39844c-0.56641,-0.10156 -1.13281,-0.18359 -1.69922,-0.25c-0.76563,-0.13672 -1.51563,-0.23437 -2.25,-0.30078c-0.53125,-0.0664 -1.06641,-0.13281 -1.59766,-0.19922c-0.86718,-0.0664 -1.73437,-0.13672 -2.60156,-0.20312c-0.43359,-0.03125 -0.88281,-0.06641 -1.35156,-0.09766c-1.29688,-0.0664 -2.61328,-0.10156 -3.94922,-0.10156c-1.33203,0 -2.66406,0.03516 -4,0.10156c-0.43359,0.03125 -0.86719,0.06641 -1.30078,0.09766c-0.89844,0.0664 -1.76563,0.13672 -2.59766,0.20312c-0.53515,0.06641 -1.0664,0.13282 -1.60156,0.19922c-0.76563,0.06641 -1.53125,0.16406 -2.30078,0.30078c-0.56641,0.06641 -1.13281,0.14844 -1.69922,0.25c-0.69922,0.13282 -1.39844,0.26563 -2.09766,0.39844c-0.60156,0.13281 -1.18359,0.26563 -1.75,0.39844c-0.66797,0.13672 -1.33593,0.28515 -2,0.45312c-0.60156,0.16407 -1.18359,0.33203 -1.75,0.5c-0.66797,0.16407 -1.3164,0.34766 -1.95312,0.54688c-0.56641,0.16797 -1.14844,0.35156 -1.75,0.55078c-0.63281,0.19922 -1.23047,0.40234 -1.79688,0.60156c-0.63672,0.23438 -1.25,0.46485 -1.85156,0.69922c-0.56641,0.23438 -1.13281,0.44922 -1.69922,0.64844c-0.60156,0.26953 -1.19922,0.53515 -1.80078,0.80078c-0.53516,0.23437 -1.06641,0.48437 -1.60156,0.75c-0.63281,0.26562 -1.25,0.56641 -1.84766,0.90234c-0.5,0.23047 -1,0.48047 -1.5,0.75c-0.60156,0.33203 -1.21875,0.66407 -1.85156,1c-0.43359,0.26563 -0.88281,0.53125 -1.34766,0.79688c-0.63672,0.36719 -1.25,0.75 -1.85156,1.15234c-0.43359,0.26563 -0.86719,0.53125 -1.30078,0.80078c-0.63281,0.4336 -1.25,0.84766 -1.84766,1.25c-0.40234,0.29688 -0.78515,0.58203 -1.15234,0.84766c-0.63281,0.43359 -1.26563,0.90234 -1.89844,1.40234c-0.33594,0.26563 -0.66797,0.53125 -1,0.79688c-0.66797,0.5 -1.30078,1.01953 -1.90234,1.55078c-0.29688,0.23437 -0.59766,0.48437 -0.89844,0.75c-0.63281,0.56641 -1.26562,1.15234 -1.89844,1.75c-0.26953,0.19922 -0.51953,0.41797 -0.75,0.65234c-0.66797,0.63282 -1.3164,1.28125 -1.95312,1.94922c-0.16406,0.16406 -0.34766,0.34766 -0.54688,0.55078c-0.66797,0.73047 -1.33593,1.44922 -2,2.14844c-0.10156,0.16797 -0.21875,0.31641 -0.35156,0.44922c-0.69922,0.76562 -1.38281,1.56641 -2.05078,2.40234c-0.06641,0.06641 -0.11719,0.11328 -0.14844,0.14844c-10.13281,12.53516 -15.90234,27.26563 -17.30078,44.19922c0,0 0,0 0,0c0.86719,0.03516 1.69922,0.05078 2.5,0.05078c1.83203,-20.39844 9.85156,-37.26562 24.05078,-50.60156c14.16406,-13.33203 31.63281,-20.23047 52.39844,-20.69922c20.66797,0.46875 38.08594,7.33594 52.25,20.60156c14.16797,13.23438 22.23437,30 24.19922,50.30078c0.83594,-0.10156 1.65234,-0.23437 2.45312,-0.40234c-1.90234,-19.46484 -9.35156,-35.84766 -22.35156,-49.14844c-0.03516,-0.03515 -0.08203,-0.08594 -0.14844,-0.15234"/>
   <path id="svg_3" fill-rule="evenodd" fill="rgb(100.000000%,100.000000%,100.000000%)" d="m240.44922,48.64844c-20.73438,0.46875 -38.19922,7.36719 -52.39844,20.70312c-14.16797,13.33203 -22.18359,30.21485 -24.05078,50.64844c0.10156,0 0.19922,0 0.30078,0l3.69922,0c1.83203,-19.26562 9.46484,-35.19922 22.89844,-47.80078c13.43359,-12.59766 29.95312,-19.13281 49.55078,-19.59766c19.60156,0.46485 36.11719,7 49.55078,19.59766c13.46484,12.56641 21.11719,28.48437 22.94922,47.75c1.40234,-0.06641 2.71875,-0.18359 3.94922,-0.34766c-1.9336,-20.30078 -9.98047,-37.08593 -24.14844,-50.35156c-14.16797,-13.26562 -31.60156,-20.13281 -52.30078,-20.60156"/>
   <path id="svg_4" fill-rule="evenodd" fill="rgb(0.392157%,0.392157%,0.392157%)" d="m240.5,52.64844c-19.60156,0.46875 -36.13281,7 -49.60156,19.60156c-13.4336,12.60156 -21.06641,28.51563 -22.89844,47.75l2.5,0c1.60156,-17.26562 8.14844,-31.80078 19.64844,-43.60156c0.10156,-0.06641 0.18359,-0.14844 0.25,-0.25c0.60156,-0.63281 1.23437,-1.25 1.90234,-1.84766c0.16406,-0.13281 0.31641,-0.28515 0.44922,-0.44922c0.60156,-0.53515 1.21484,-1.0664 1.85156,-1.60156c0.19922,-0.19922 0.41407,-0.39844 0.64844,-0.60156c0.56641,-0.46485 1.14844,-0.9336 1.75,-1.39844c0.26563,-0.23437 0.55078,-0.44922 0.85156,-0.64844c0.56641,-0.43359 1.13282,-0.86718 1.69922,-1.30078c0.33203,-0.23437 0.64844,-0.44922 0.94922,-0.65234c0.56641,-0.39844 1.13281,-0.78125 1.69922,-1.14844c0.36719,-0.23437 0.73437,-0.46484 1.10156,-0.69922c0.56641,-0.33594 1.11719,-0.66797 1.64844,-1c0.40234,-0.23437 0.80078,-0.46875 1.19922,-0.69922c0.5664,-0.30078 1.11719,-0.60156 1.65234,-0.90234c0.46485,-0.23438 0.91406,-0.46484 1.34766,-0.69922c0.53515,-0.26562 1.0664,-0.51562 1.60156,-0.75c0.46484,-0.23437 0.94922,-0.44922 1.44922,-0.64844c0.5,-0.23437 1.03516,-0.46875 1.60156,-0.70312c0.5,-0.19922 1,-0.39844 1.5,-0.59766c0.53125,-0.19922 1.06641,-0.40234 1.59766,-0.60156c0.53515,-0.19922 1.0664,-0.38281 1.60156,-0.55078c0.53516,-0.16406 1.06641,-0.33203 1.60156,-0.5c0.53125,-0.16406 1.08203,-0.33203 1.64844,-0.5c0.53516,-0.13281 1.06641,-0.26563 1.60156,-0.39844c0.56641,-0.13281 1.14844,-0.26562 1.75,-0.39844c0.53125,-0.13672 1.04688,-0.25 1.54688,-0.35156c0.63672,-0.13281 1.26953,-0.25 1.90234,-0.35156c0.5,-0.06641 1,-0.14844 1.5,-0.25c0.66406,-0.09766 1.33203,-0.1836 2,-0.25c0.46485,-0.06641 0.9336,-0.11328 1.39844,-0.14844c0.80078,-0.10156 1.58594,-0.16797 2.35156,-0.19922c0.36719,-0.03515 0.75,-0.0664 1.14844,-0.10156c1.16797,-0.03125 2.35156,-0.05078 3.55078,-0.05078c1.16797,0 2.33203,0.01953 3.5,0.05078c0.39844,0.03516 0.80078,0.06641 1.19922,0.10156c0.76562,0.06641 1.53516,0.13281 2.30078,0.19922c0.46484,0.03516 0.93359,0.08203 1.39844,0.14844c0.70312,0.0664 1.38672,0.15234 2.05078,0.25c0.5,0.10156 1,0.18359 1.5,0.25c0.63281,0.10156 1.25,0.21875 1.85156,0.35156c0.53125,0.10156 1.05078,0.21484 1.55078,0.35156c0.59766,0.13282 1.19922,0.26563 1.79688,0.39844c0.53515,0.13281 1.05078,0.26563 1.55078,0.39844c0.56641,0.16797 1.13281,0.33594 1.69922,0.5c0.53515,0.16797 1.0664,0.33594 1.60156,0.5c0.53516,0.20312 1.06641,0.38672 1.60156,0.55078c0.53125,0.19922 1.06641,0.40234 1.59766,0.60156c0.5,0.19922 1,0.39844 1.5,0.59766c0.53516,0.23437 1.06641,0.46875 1.60156,0.70312c0.46485,0.19922 0.9336,0.41407 1.39844,0.64844c0.56641,0.23438 1.11719,0.48438 1.65234,0.75c0.4336,0.23438 0.86328,0.46484 1.29688,0.69922c0.5664,0.30078 1.11719,0.60156 1.65234,0.90234c0.39844,0.23047 0.80078,0.46485 1.19922,0.69922c0.56641,0.30078 1.13281,0.63281 1.69922,1c0.33594,0.23438 0.68359,0.46485 1.05078,0.69922c0.60156,0.36719 1.16797,0.75 1.69922,1.14844c0.33594,0.20312 0.65234,0.41797 0.94922,0.65234c0.60156,0.4336 1.18359,0.86719 1.75,1.30078c0.26953,0.19922 0.53515,0.41407 0.80078,0.64844c0.60156,0.46484 1.19922,0.93359 1.80078,1.39844c0.19922,0.20312 0.41797,0.40234 0.64844,0.60156c0.60156,0.53516 1.20312,1.06641 1.80078,1.60156c0.16797,0.16407 0.33594,0.31641 0.5,0.44922c0.63281,0.59766 1.26562,1.21485 1.90234,1.84766c0.06641,0.10156 0.13282,0.18359 0.19922,0.25c11.5,11.80078 18.06641,26.33594 19.69922,43.60156c0,0 0,0 0,0l0.85156,0c0.56641,0 1.11328,-0.01562 1.64844,-0.05078c-1.86719,-19.23438 -9.51562,-35.14844 -22.94922,-47.75c-13.43359,-12.56641 -29.94922,-19.08203 -49.55078,-19.55078"/>
   <path id="svg_5" fill-rule="evenodd" fill="rgb(0.392157%,0.392157%,0.392157%)" d="m284.85156,107.10156c-0.23437,-0.53515 -0.46875,-1.08593 -0.70312,-1.65234c-0.06641,-0.13281 -0.13281,-0.26563 -0.19922,-0.39844c-0.23438,-0.5 -0.48438,-1.01562 -0.75,-1.55078c-0.06641,-0.13281 -0.14844,-0.28516 -0.25,-0.44922c-0.23438,-0.46875 -0.48438,-0.93359 -0.75,-1.40234c-0.13281,-0.19922 -0.23438,-0.38281 -0.30078,-0.54688c-0.29688,-0.43359 -0.58203,-0.88672 -0.84766,-1.35156c-0.10156,-0.16797 -0.21875,-0.33203 -0.35156,-0.5c-0.26563,-0.46484 -0.55078,-0.89844 -0.84766,-1.30078c-0.13672,-0.19922 -0.26953,-0.38281 -0.40234,-0.55078c-0.30078,-0.4336 -0.59766,-0.84766 -0.89844,-1.25c-0.13281,-0.16406 -0.28515,-0.33203 -0.44922,-0.5c-0.30078,-0.39844 -0.61718,-0.79688 -0.95312,-1.19922c-0.13281,-0.16406 -0.28125,-0.33203 -0.44922,-0.5c-0.30078,-0.39844 -0.63281,-0.78125 -1,-1.14844c-0.13281,-0.16797 -0.28125,-0.33594 -0.44922,-0.5c-0.33203,-0.36719 -0.68359,-0.73437 -1.05078,-1.10156c-0.16406,-0.13281 -0.31641,-0.26563 -0.44922,-0.39844c-0.39844,-0.36719 -0.78516,-0.73437 -1.14844,-1.10156c-0.10156,-0.06641 -0.18359,-0.13281 -0.25,-0.19922c-1.33593,-1.19922 -2.75,-2.31641 -4.25,-3.35156c-0.20312,-0.16406 -0.41797,-0.33203 -0.65234,-0.5c-0.33203,-0.23047 -0.68359,-0.44922 -1.05078,-0.64844c-0.26563,-0.19922 -0.54688,-0.38281 -0.84766,-0.55078c-0.33594,-0.19922 -0.66797,-0.39844 -1,-0.59766c-0.30078,-0.16797 -0.61719,-0.35156 -0.94922,-0.55078c-0.33593,-0.16797 -0.66797,-0.33594 -1,-0.5c-0.33593,-0.19922 -0.66797,-0.38281 -1,-0.55078c-0.33593,-0.13281 -0.66797,-0.28516 -1,-0.44922c-0.33593,-0.16797 -0.68359,-0.33594 -1.05078,-0.5c-0.33594,-0.13281 -0.66797,-0.26562 -1,-0.40234c-0.36719,-0.16406 -0.73437,-0.31641 -1.10156,-0.44922c-0.33203,-0.13281 -0.66406,-0.25 -1,-0.34766c-0.39844,-0.13672 -0.78125,-0.26953 -1.14844,-0.40234c-0.33594,-0.09766 -0.66797,-0.19922 -1,-0.30078c-0.40234,-0.13281 -0.80078,-0.25 -1.19922,-0.34766c-0.33593,-0.10156 -0.66797,-0.18359 -1,-0.25c-0.43359,-0.13281 -0.85156,-0.23437 -1.25,-0.30078c-0.33593,-0.10156 -0.66797,-0.18359 -1,-0.25c-0.43359,-0.06641 -0.86718,-0.13281 -1.30078,-0.19922c-0.33594,-0.0664 -0.66797,-0.13281 -1,-0.19922c-0.46875,-0.03515 -0.93359,-0.08593 -1.40234,-0.15234c-0.29688,-0.03125 -0.61328,-0.06641 -0.94922,-0.09766c-0.5,-0.0664 -1.01563,-0.11718 -1.55078,-0.15234c-0.26563,0 -0.53125,-0.01563 -0.79688,-0.05078c-0.76953,-0.03125 -1.55078,-0.04688 -2.35156,-0.04688c-0.80078,0 -1.60156,0.01563 -2.39844,0.04688c-0.26953,0.03515 -0.53515,0.05078 -0.80078,0.05078c-0.5,0.03516 -1.01562,0.08594 -1.55078,0.15234c-0.33203,0.03125 -0.64844,0.06641 -0.94922,0.09766c-0.46875,0.03516 -0.93359,0.08594 -1.40234,0.15234c-0.29688,0.06641 -0.61328,0.13282 -0.94922,0.19922c-0.46484,0.06641 -0.89844,0.13281 -1.30078,0.19922c-0.36328,0.10156 -0.69922,0.18359 -1,0.25c-0.4336,0.06641 -0.84766,0.16797 -1.25,0.30078c-0.36328,0.06641 -0.71485,0.14844 -1.04688,0.25c-0.36718,0.09766 -0.75,0.21485 -1.15234,0.34766c-0.36719,0.10156 -0.71484,0.20312 -1.05078,0.30078c-0.36328,0.13281 -0.75,0.26562 -1.14844,0.40234c-0.33203,0.09766 -0.66797,0.21485 -1,0.34766c-0.36719,0.13281 -0.73437,0.28516 -1.10156,0.44922c-0.33203,0.13672 -0.66406,0.26953 -1,0.40234c-0.36328,0.16406 -0.71485,0.33203 -1.04688,0.5c-0.33593,0.13281 -0.66797,0.28125 -1,0.44922c-0.33593,0.16797 -0.66797,0.35156 -1,0.55078c-0.33593,0.16406 -0.66797,0.33203 -1,0.5c-0.30078,0.19922 -0.61718,0.38281 -0.95312,0.55078c-0.33203,0.19922 -0.66406,0.39844 -1,0.59766c-0.26563,0.16797 -0.54688,0.35156 -0.84766,0.55078c-0.33594,0.19922 -0.68359,0.41797 -1.05078,0.64844c-0.19922,0.16797 -0.41797,0.33594 -0.64844,0.5c-1.46875,1.03515 -2.88672,2.15234 -4.25,3.35156c-0.0664,0.06641 -0.13672,0.13281 -0.20312,0.19922c-0.39844,0.36719 -0.79688,0.73437 -1.19922,1.10156c-0.13281,0.13281 -0.26563,0.26563 -0.39844,0.39844c-0.36719,0.36719 -0.73437,0.75 -1.10156,1.15234c-0.16406,0.13282 -0.31641,0.28125 -0.44922,0.44922c-0.33203,0.36719 -0.66797,0.75 -1,1.14844c-0.16797,0.16797 -0.31641,0.33594 -0.44922,0.5c-0.33594,0.40234 -0.65234,0.80078 -0.94922,1.19922c-0.16797,0.16797 -0.3164,0.33594 -0.45312,0.5c-0.29688,0.43359 -0.59766,0.85156 -0.89844,1.25c-0.13281,0.16797 -0.26562,0.35156 -0.39844,0.55078c-0.26953,0.40234 -0.55078,0.83594 -0.85156,1.30078c-0.10156,0.16797 -0.21484,0.33203 -0.35156,0.5c-0.26563,0.46484 -0.53125,0.91797 -0.79688,1.35156c-0.10156,0.19922 -0.20312,0.36328 -0.30078,0.5c-0.26562,0.5 -0.53515,0.98047 -0.80078,1.44922c-0.06641,0.16406 -0.14844,0.31641 -0.25,0.44922c-0.26562,0.53516 -0.51562,1.05078 -0.75,1.55078c-0.06641,0.13281 -0.11719,0.26563 -0.14844,0.39844c-0.26953,0.53516 -0.51953,1.10156 -0.75,1.69922c-0.03515,0.03515 -0.0664,0.08594 -0.10156,0.15234c-1.63281,4 -2.69922,8.23438 -3.19922,12.69922l2.5,0c1.56641,-11.56641 6.51563,-21.08203 14.84766,-28.55078c8.30078,-7.5 18.41797,-11.36719 30.35156,-11.59766c11.89844,0.26563 22.01563,4.13282 30.35156,11.59766c8.29688,7.46875 13.23047,16.98437 14.79688,28.55078l2.5,0c-0.5,-4.43359 -1.56641,-8.64844 -3.19922,-12.64844c-0.03125,-0.10156 -0.06641,-0.18359 -0.09766,-0.25"/>
   <path id="svg_6" fill-rule="evenodd" fill="rgb(100.000000%,100.000000%,100.000000%)" d="m240.5,79.85156c-11.93359,0.26563 -22.05078,4.13282 -30.35156,11.59766c-8.33203,7.46875 -13.28125,16.98437 -14.84766,28.55078l20.44922,0c1.53516,-5.60156 4.51563,-10.16797 8.94922,-13.69922c4.46875,-3.53515 9.73437,-5.36719 15.80078,-5.5c6.03516,0.13281 11.28516,1.96485 15.75,5.5c4.46484,3.53125 7.44922,8.09766 8.94922,13.69922l20.44922,0c-1.56641,-11.56641 -6.51563,-21.08203 -14.84766,-28.55078c-8.30078,-7.46484 -18.40234,-11.33203 -30.30078,-11.59766"/>
   <path id="svg_7" fill-rule="evenodd" fill="rgb(0.392157%,0.392157%,0.392157%)" d="m240.5,100.80078c-6.06641,0.09766 -11.33203,1.91406 -15.80078,5.44922c-4.43359,3.53516 -7.41406,8.11719 -8.94922,13.75l2.55078,0c0.03125,0 0.03125,0 0,0c0.53125,-1.80078 1.26563,-3.5 2.19922,-5.10156c0,-0.03125 0,-0.04688 0,-0.04688c0.89844,-1.5664 1.98438,-3.01953 3.25,-4.35156c0,-0.03516 0.01563,-0.05078 0.05078,-0.05078c0.83203,-0.86719 1.71485,-1.66406 2.64844,-2.39844c0,0 0.01562,-0.01562 0.05078,-0.05078c0.46484,-0.33203 0.93359,-0.66797 1.39844,-1c0.0664,-0.03516 0.13672,-0.06641 0.20312,-0.10156c0.9336,-0.59766 1.9336,-1.13281 3,-1.59766c0.06641,-0.03515 0.13282,-0.0664 0.19922,-0.10156c0.5,-0.23438 1.01563,-0.43359 1.55078,-0.59766c0.09766,-0.03515 0.1836,-0.0664 0.25,-0.10156c0.56641,-0.19922 1.11328,-0.36719 1.64844,-0.5c0,0 0.01563,0 0.05078,0c0.53125,-0.13281 1.08203,-0.25 1.64844,-0.35156c0.10156,-0.03125 0.19922,-0.04688 0.30078,-0.04688c0.53516,-0.10156 1.08203,-0.16797 1.64844,-0.20312c0.10156,-0.03125 0.20312,-0.04688 0.30078,-0.04688c0.60156,-0.03515 1.19922,-0.05078 1.80078,-0.05078c0.56641,0 1.14844,0.01563 1.75,0.05078c0.10156,0 0.19922,0.01563 0.30078,0.04688c0.56641,0.03515 1.13281,0.10156 1.69922,0.20312c0.06641,0 0.16797,0.01563 0.30078,0.04688c0.53125,0.10156 1.06641,0.21875 1.59766,0.35156c0.03515,0 0.05078,0 0.05078,0c0.56641,0.13281 1.11719,0.30078 1.65234,0.5c0.09766,0.03516 0.1836,0.06641 0.25,0.10156c0.53125,0.16407 1.04688,0.36328 1.54688,0.59766c0.0664,0.03516 0.13672,0.06641 0.20312,0.10156c1.06641,0.46485 2.08203,1 3.04688,1.59766c0.03515,0.03515 0.08594,0.0664 0.15234,0.10156c0.46485,0.33203 0.9336,0.66797 1.39844,1c0.03516,0.03516 0.05078,0.05078 0.05078,0.05078c0.96484,0.73438 1.85156,1.53125 2.64844,2.39844l0.10156,0.05078c1.23438,1.33203 2.30078,2.78516 3.19922,4.35156c0.03516,0.03125 0.05078,0.04688 0.05078,0.04688c0.89844,1.60156 1.61719,3.30078 2.14844,5.10156c0,0 0,0 0,0l2.55078,0c-1.5,-5.63281 -4.48438,-10.21484 -8.94922,-13.75c-4.46484,-3.53516 -9.71484,-5.35156 -15.75,-5.44922"/>
   <path id="svg_8" fill-rule="evenodd" fill="rgb(16.078431%,37.647059%,66.274510%)" d="m153.80078,119.19922c0,0 0,0 0,0c2.63281,0.36719 5.21485,0.60156 7.75,0.69922l-0.05078,0c-2.5,-0.09766 -5.06641,-0.33203 -7.69922,-0.69922"/>
   <path id="svg_9" fill-rule="evenodd" fill="rgb(16.078431%,37.647059%,66.274510%)" d="m240.44922,31.14844c-11.59766,0.0664 -22.55078,2.03515 -32.84766,5.90234l-13.05078,-8.10156l-7.30078,4.19922l-7.30078,4.20312l0.44922,15.39844c-4.53125,3.80078 -8.69922,7.98438 -12.5,12.55078l-15.39844,-0.44922l-4.19922,7.25l-4.19922,7.29688l8.04688,13.10156c-2.03125,5.5 -3.54688,11.21484 -4.54688,17.14844l-7.25,3.85156c0,0.03516 0,0.05078 0,0.05078c0.13282,0.13281 0.25,0.26563 0.34766,0.39844c0,0 0,0 0,0c0.16797,0.26562 0.30078,0.48437 0.40234,0.65234c0.03125,0 0.04688,0.01563 0.04688,0.04688c0.0664,0.0664 0.10156,0.11719 0.10156,0.15234c0.96484,1.16406 2.75,2.13281 5.35156,2.89844c0,0 0.01563,0 0.04688,0c0.46875,0.16797 0.96875,0.31641 1.5,0.44922c0.0664,0 0.11719,0 0.15234,0c0.53125,0.13672 1.06641,0.26953 1.59766,0.40234c0.0664,0 0.13672,0 0.20312,0c0.56641,0.13281 1.13282,0.25 1.69922,0.34766c0.06641,0 0.11719,0 0.14844,0c0.60156,0.10156 1.19922,0.20312 1.80078,0.30078c0,0 0,0 0,0c0.03516,0 0.05078,0 0.05078,0c-0.03515,0 -0.03515,0 0,0c2.63281,0.36719 5.19922,0.60156 7.69922,0.69922c0,0 0,0 0,0c0,0 0,0 0,0c0.19922,-2.73047 0.53516,-5.44922 1,-8.14844c0.83203,-4.69922 2.05078,-9.25 3.64844,-13.64844c3.0664,-8.20312 7.30078,-15.65234 12.70312,-22.35156c0.03125,-0.06641 0.06641,-0.11719 0.09766,-0.14844c0.26562,-0.33593 0.53516,-0.65234 0.80078,-0.95312c0.43359,-0.5 0.85156,-1 1.25,-1.5c0.13281,-0.13281 0.25,-0.26563 0.35156,-0.39844c0.66407,-0.73437 1.33203,-1.44922 2,-2.14844c0.19922,-0.20312 0.38282,-0.40234 0.54688,-0.60156c0.66797,-0.63281 1.3164,-1.26562 1.95312,-1.89844c0.26563,-0.23437 0.51563,-0.46875 0.75,-0.70312c0.63282,-0.56641 1.26563,-1.13281 1.89844,-1.69922c0.30078,-0.26563 0.60156,-0.53125 0.89844,-0.80078c0.13672,-0.09766 0.25,-0.19922 0.35156,-0.29688c0.5,-0.40234 1.01563,-0.8164 1.55078,-1.25c0.33203,-0.26953 0.66406,-0.53515 1,-0.80078c0.63281,-0.46875 1.26563,-0.93359 1.89844,-1.40234c0.36719,-0.26563 0.75,-0.53125 1.15234,-0.79688c0.59766,-0.43359 1.21485,-0.85156 1.84766,-1.25c0.43359,-0.30078 0.86719,-0.58593 1.30078,-0.85156c0.60156,-0.36719 1.21484,-0.73437 1.85156,-1.10156c0.46485,-0.26563 0.9336,-0.53125 1.39844,-0.79688c0.60156,-0.36718 1.19922,-0.70312 1.80078,-1c0.5,-0.26953 1,-0.53515 1.5,-0.80078c0.63281,-0.30078 1.25,-0.60156 1.84766,-0.90234c0.53515,-0.23047 1.0664,-0.46485 1.60156,-0.69922c0.60156,-0.26563 1.19922,-0.53125 1.80078,-0.80078c0.59766,-0.23047 1.1836,-0.44922 1.75,-0.64844c0.36719,-0.16797 0.75,-0.31641 1.14844,-0.44922c0.23437,-0.10156 0.44922,-0.18359 0.65234,-0.25c0.59766,-0.19922 1.19922,-0.40234 1.79688,-0.60156c0.60156,-0.19922 1.20312,-0.39844 1.80078,-0.59766c0.63281,-0.20312 1.26562,-0.38672 1.90234,-0.55078c0.56641,-0.16797 1.14844,-0.3164 1.75,-0.44922c0.66407,-0.16797 1.33203,-0.33593 2,-0.5c0.59766,-0.13672 1.1836,-0.25 1.75,-0.35156c0.69922,-0.16797 1.41407,-0.30078 2.14844,-0.39844c0.53516,-0.10156 1.08203,-0.20312 1.64844,-0.30078c0.76953,-0.10156 1.53515,-0.19922 2.30078,-0.30078c0.53516,-0.06641 1.06641,-0.13281 1.60156,-0.19922c0.86719,-0.0664 1.73438,-0.11719 2.59766,-0.15234c0.43359,-0.06641 0.88672,-0.09766 1.35156,-0.09766c1.30078,-0.10156 2.61719,-0.13281 3.94922,-0.10156c1.33594,-0.03125 2.66797,0 4,0.10156c0.43359,0 0.86719,0.01563 1.30078,0.05078c0.86719,0.06641 1.73438,0.13282 2.60156,0.19922c0.53125,0.06641 1.06641,0.13281 1.59766,0.19922c0.76562,0.10156 1.51562,0.19922 2.25,0.30078c0.56641,0.09766 1.13281,0.19922 1.69922,0.30078c0.70312,0.09766 1.40234,0.21485 2.10156,0.34766c0.60156,0.13281 1.18359,0.26562 1.75,0.40234c0.66797,0.13282 1.33203,0.28125 2,0.44922c0.60156,0.16406 1.18359,0.33203 1.75,0.5c0.66797,0.16406 1.30078,0.34766 1.89844,0.55078c0.60156,0.16407 1.20312,0.34766 1.80078,0.54688c0.60156,0.20312 1.19922,0.40234 1.80078,0.60156c0.60156,0.23438 1.19922,0.46484 1.80078,0.69922c0.56641,0.19922 1.13281,0.41797 1.69922,0.65234c0.60156,0.26563 1.19922,0.53125 1.80078,0.79688c0.56641,0.23437 1.09766,0.46875 1.59766,0.70312c0.63672,0.29688 1.25,0.59766 1.85156,0.89844c0.5,0.26563 1,0.51563 1.5,0.75c0.60156,0.33203 1.21484,0.68359 1.85156,1.05078c0.4336,0.23438 0.88282,0.48438 1.34766,0.75c0.63281,0.36719 1.25,0.75 1.85156,1.14844c0.4336,0.26562 0.84766,0.53516 1.25,0.80078c0.63281,0.39844 1.26563,0.81641 1.89844,1.25c0.36719,0.26563 0.73437,0.53516 1.10156,0.80078c0.63281,0.46485 1.28125,0.9336 1.94922,1.39844c0.30078,0.26562 0.60156,0.51562 0.89844,0.75c0.66797,0.53516 1.33594,1.06641 2,1.60156c0.23437,0.19922 0.46875,0.41406 0.70312,0.64844c0.69922,0.60156 1.39844,1.21875 2.09766,1.85156c0.16797,0.13281 0.31641,0.28125 0.44922,0.44922c0.76953,0.69922 1.5,1.41797 2.20312,2.14844c0.06641,0.03515 0.11328,0.08594 0.14844,0.15234c13.03516,13.30078 20.48438,29.66406 22.35156,49.09766c0,0 0,0 0,0c1.19922,-0.23047 2.29688,-0.51563 3.29688,-0.84766c2.33594,-0.76562 4.15234,-1.53515 5.45312,-2.30078c0.03125,0 0.04688,-0.01562 0.04688,-0.05078c0.20312,-0.06641 0.36719,-0.14844 0.5,-0.25c0.03515,0 0.0664,-0.01563 0.10156,-0.05078c0.23438,-0.13281 0.43359,-0.26563 0.60156,-0.39844c0.06641,-0.03516 0.13282,-0.06641 0.19922,-0.10156c0.06641,-0.06641 0.13281,-0.11328 0.19922,-0.14844c0.06641,-0.03516 0.13281,-0.08203 0.19922,-0.14844c0.06641,-0.03515 0.11719,-0.05078 0.15234,-0.05078c0.09766,-0.10156 0.1836,-0.16797 0.25,-0.19922c0.29688,-0.43359 0.61328,-0.86718 0.94922,-1.30078c0.13281,-0.16797 0.26563,-0.3164 0.39844,-0.44922c0.16797,-0.23437 0.35156,-0.45312 0.55078,-0.65234c0.39844,-0.46484 0.83203,-0.91406 1.30078,-1.34766c0,0 0,0 0,0c-4,-23.0664 -14.5,-42 -31.5,-56.80078c-17.03515,-14.76562 -37.5664,-22.40234 -61.60156,-22.90234"/>
   <path id="svg_10" fill-rule="evenodd" fill="rgb(16.078431%,37.647059%,66.274510%)" d="m290.80078,76.35156c-0.10156,-0.0664 -0.18359,-0.13672 -0.25,-0.20312c-0.63281,-0.63281 -1.26562,-1.26563 -1.90234,-1.89844c-0.16406,-0.13281 -0.31641,-0.26562 -0.44922,-0.39844c-0.59766,-0.5664 -1.21484,-1.11718 -1.84766,-1.65234c-0.20312,-0.19922 -0.41797,-0.38281 -0.65234,-0.55078c-0.59766,-0.5 -1.18359,-0.98047 -1.75,-1.44922c-0.30078,-0.23438 -0.58203,-0.44922 -0.84766,-0.64844c-0.5664,-0.43359 -1.13672,-0.85156 -1.70312,-1.25c-0.33203,-0.23437 -0.66406,-0.46875 -1,-0.69922c-0.53125,-0.40234 -1.08203,-0.78515 -1.64844,-1.15234c-0.36719,-0.23438 -0.73437,-0.46484 -1.10156,-0.69922c-0.56641,-0.33203 -1.11328,-0.66797 -1.64844,-1c-0.43359,-0.23437 -0.85156,-0.46484 -1.25,-0.69922c-0.53516,-0.30078 -1.08203,-0.60156 -1.64844,-0.90234c-0.43359,-0.23047 -0.86718,-0.44922 -1.30078,-0.64844c-0.53515,-0.26562 -1.0664,-0.53516 -1.60156,-0.80078c-0.5,-0.23438 -0.98438,-0.44922 -1.44922,-0.64844c-0.53516,-0.23437 -1.06641,-0.46875 -1.60156,-0.69922c-0.5,-0.20312 -1,-0.40234 -1.5,-0.60156c-0.53125,-0.19922 -1.06641,-0.39844 -1.59766,-0.60156c-0.53515,-0.16406 -1.0664,-0.33203 -1.60156,-0.5c-0.53125,-0.19922 -1.06641,-0.38281 -1.59766,-0.54688c-0.5664,-0.13672 -1.13672,-0.28515 -1.70312,-0.45312c-0.5,-0.16406 -1.01563,-0.31641 -1.54688,-0.44922c-0.60156,-0.13281 -1.18359,-0.26563 -1.75,-0.39844c-0.53515,-0.10156 -1.05078,-0.21875 -1.55078,-0.35156c-0.63281,-0.09766 -1.26562,-0.19922 -1.90234,-0.30078c-0.5,-0.09766 -1,-0.1836 -1.5,-0.25c-0.66406,-0.09766 -1.34766,-0.19922 -2.04688,-0.29688c-0.43359,-0.03515 -0.90234,-0.08593 -1.40234,-0.15234c-0.73438,-0.06641 -1.5,-0.13281 -2.30078,-0.19922c-0.36328,0 -0.75,-0.01562 -1.14844,-0.05078c-1.16797,-0.06641 -2.35156,-0.09766 -3.55078,-0.09766c-1.16406,0 -2.34766,0.03125 -3.55078,0.09766c-0.36328,0 -0.75,0.01562 -1.14844,0.05078c-0.76562,0.06641 -1.53516,0.13281 -2.30078,0.19922c-0.46484,0.06641 -0.93359,0.11719 -1.39844,0.15234c-0.69922,0.09766 -1.38281,0.19922 -2.05078,0.29688c-0.5,0.0664 -1,0.15234 -1.5,0.25c-0.63281,0.10156 -1.26562,0.20312 -1.89844,0.30078c-0.5,0.13281 -1,0.25 -1.5,0.35156c-0.60156,0.13281 -1.20312,0.26563 -1.80078,0.39844c-0.53515,0.16797 -1.05078,0.31641 -1.55078,0.44922c-0.56641,0.13672 -1.13281,0.28515 -1.69922,0.45312c-0.53515,0.16407 -1.0664,0.34766 -1.60156,0.54688c-0.53125,0.16797 -1.06641,0.33594 -1.59766,0.5c-0.53515,0.20312 -1.0664,0.40234 -1.60156,0.60156c-0.5,0.19922 -1,0.39844 -1.5,0.60156c-0.53516,0.23047 -1.06641,0.46485 -1.60156,0.69922c-0.46485,0.19922 -0.9336,0.41406 -1.39844,0.64844c-0.56641,0.26562 -1.11719,0.53516 -1.64844,0.80078c-0.43359,0.19922 -0.86718,0.41797 -1.30078,0.64844c-0.5664,0.30078 -1.11719,0.60156 -1.65234,0.90234c-0.39844,0.23438 -0.79688,0.46485 -1.19922,0.69922c-0.56641,0.33203 -1.13281,0.66797 -1.69922,1c-0.36719,0.23438 -0.73437,0.46484 -1.10156,0.69922c-0.56641,0.36719 -1.11328,0.75 -1.64844,1.15234c-0.33203,0.23047 -0.66797,0.46485 -1,0.69922c-0.56641,0.39844 -1.13281,0.81641 -1.69922,1.25c-0.26562,0.19922 -0.55078,0.41406 -0.85156,0.64844c-0.56641,0.46875 -1.14844,0.94922 -1.75,1.44922c-0.19922,0.16797 -0.41406,0.35156 -0.64844,0.55078c-0.63281,0.53516 -1.23437,1.08594 -1.80078,1.65234c-0.16797,0.13282 -0.33203,0.26563 -0.5,0.39844c-0.63281,0.63281 -1.26562,1.26563 -1.89844,1.89844c-0.0664,0.0664 -0.13672,0.13672 -0.20312,0.20312c-11.5,11.83203 -18.06641,26.38282 -19.69922,43.64844l22.30078,0c0.53516,-4.46484 1.61719,-8.69922 3.25,-12.69922c0.03516,-0.0664 0.05078,-0.13281 0.05078,-0.19922c0.23438,-0.5664 0.48438,-1.13672 0.75,-1.70312c0.06641,-0.09766 0.11719,-0.21485 0.14844,-0.34766c0.26562,-0.5 0.53516,-1.01562 0.80078,-1.55078c0.06641,-0.13281 0.13281,-0.28516 0.19922,-0.44922c0.26562,-0.46875 0.53516,-0.94922 0.80078,-1.44922c0.10156,-0.16797 0.19922,-0.33593 0.30078,-0.5c0.26563,-0.46875 0.55078,-0.91797 0.84766,-1.35156c0.10156,-0.16797 0.20312,-0.35156 0.30078,-0.55078c0.30078,-0.43359 0.60156,-0.86719 0.90234,-1.30078c0.13282,-0.16406 0.25,-0.33203 0.34766,-0.5c0.33594,-0.4336 0.65234,-0.84766 0.94922,-1.25c0.13672,-0.16406 0.26953,-0.33203 0.40234,-0.5c0.33203,-0.4336 0.64844,-0.83203 0.94922,-1.19922c0.16797,-0.16406 0.31641,-0.33203 0.44922,-0.5c0.33594,-0.39844 0.66797,-0.78125 1,-1.14844c0.16797,-0.16797 0.31641,-0.33594 0.44922,-0.5c0.36719,-0.36719 0.73437,-0.73437 1.10156,-1.10156c0.13281,-0.13281 0.26563,-0.26563 0.39844,-0.39844c0.40234,-0.36719 0.80078,-0.73437 1.20312,-1.10156c0.06641,-0.06641 0.13282,-0.13281 0.19922,-0.19922c1.36719,-1.19922 2.80078,-2.33203 4.30078,-3.39844c0.19922,-0.13672 0.41407,-0.28515 0.64844,-0.45312c0.33203,-0.23047 0.68359,-0.46485 1.05078,-0.69922c0.26563,-0.16406 0.53125,-0.33203 0.80078,-0.5c0.36328,-0.19922 0.71485,-0.39844 1.04688,-0.59766c0.30078,-0.20312 0.60156,-0.38672 0.90234,-0.55078c0.33203,-0.16797 0.66406,-0.35156 1,-0.55078c0.33203,-0.16797 0.66406,-0.33203 1,-0.5c0.33203,-0.16797 0.66406,-0.31641 1,-0.44922c0.36719,-0.16797 0.71485,-0.33594 1.05078,-0.5c0.36328,-0.13281 0.71485,-0.26562 1.04688,-0.40234c0.33594,-0.16406 0.70312,-0.31641 1.10156,-0.44922c0.33203,-0.13281 0.66797,-0.25 1,-0.34766c0.36719,-0.16797 0.75,-0.30078 1.14844,-0.40234c0.33594,-0.13281 0.66797,-0.25 1,-0.34766c0.40234,-0.10156 0.80078,-0.20312 1.20312,-0.30078c0.33203,-0.10156 0.66407,-0.19922 1,-0.30078c0.4336,-0.10156 0.84766,-0.18359 1.25,-0.25c0.33203,-0.10156 0.66407,-0.18359 1,-0.25c0.4336,-0.06641 0.86328,-0.13281 1.29688,-0.19922c0.33594,-0.0664 0.66797,-0.13281 1,-0.19922c0.46875,-0.0664 0.93359,-0.11718 1.40234,-0.15234c0.30078,-0.06641 0.59766,-0.09766 0.89844,-0.09766c0.53516,-0.0664 1.06641,-0.11718 1.60156,-0.15234c0.23438,-0.03125 0.48438,-0.05078 0.75,-0.05078c0.80078,-0.03125 1.59766,-0.04688 2.39844,-0.04688c0.80078,0 1.60156,0.01563 2.40234,0.04688c0.26563,0 0.51563,0.01953 0.75,0.05078c0.53125,0.03516 1.06641,0.08594 1.59766,0.15234c0.30078,0 0.61719,0.03125 0.94922,0.09766c0.43359,0.03516 0.88672,0.08594 1.35156,0.15234c0.33203,0.06641 0.66797,0.13282 1,0.19922c0.43359,0.06641 0.86719,0.13281 1.30078,0.19922c0.33203,0.06641 0.66406,0.14844 1,0.25c0.4336,0.06641 0.84766,0.14844 1.25,0.25c0.33203,0.10156 0.66406,0.19922 1,0.30078c0.39844,0.09766 0.80078,0.19922 1.19922,0.30078c0.33203,0.13282 0.66797,0.25 1,0.34766c0.39844,0.13281 0.78516,0.26562 1.14844,0.40234c0.36719,0.09766 0.71875,0.21485 1.05078,0.34766c0.36719,0.13281 0.73437,0.28516 1.10156,0.44922c0.33203,0.13672 0.66406,0.26953 1,0.40234c0.33203,0.16406 0.6836,0.33203 1.05078,0.5c0.33203,0.13281 0.66407,0.28125 1,0.44922c0.33203,0.16797 0.66407,0.33203 1,0.5c0.33203,0.19922 0.66407,0.38281 1,0.55078c0.29688,0.16406 0.59766,0.34766 0.89844,0.55078c0.36719,0.19922 0.71484,0.39844 1.05078,0.59766c0.26563,0.16797 0.55078,0.35156 0.84766,0.55078c0.33594,0.19922 0.66797,0.41797 1,0.64844c0.23437,0.16797 0.46875,0.33594 0.70312,0.5c1.46485,1.03515 2.86328,2.15234 4.19922,3.35156c0.09766,0.06641 0.1836,0.13281 0.25,0.19922c0.39844,0.36719 0.78125,0.73437 1.14844,1.10156c0.16797,0.13281 0.31641,0.26563 0.44922,0.39844c0.36719,0.36719 0.73437,0.73437 1.10156,1.10156c0.13281,0.16406 0.28516,0.33203 0.44922,0.5c0.33594,0.36719 0.66797,0.73438 1,1.09766c0.13281,0.20312 0.28516,0.38672 0.44922,0.55078c0.33594,0.36719 0.65234,0.75 0.95312,1.15234c0.13282,0.19922 0.26563,0.38282 0.39844,0.54688c0.33203,0.40234 0.64844,0.8164 0.94922,1.25c0.10156,0.16797 0.21875,0.35156 0.35156,0.55078c0.30078,0.40234 0.59766,0.81641 0.89844,1.25c0.10156,0.19922 0.21875,0.38281 0.35156,0.55078c0.26563,0.43359 0.53125,0.88281 0.80078,1.35156c0.09766,0.16407 0.19922,0.33203 0.29688,0.5c0.26953,0.5 0.53515,0.98047 0.80078,1.44922c0.06641,0.16406 0.13281,0.31641 0.19922,0.44922c0.26953,0.53516 0.53515,1.05078 0.80078,1.55078c0.03516,0.13281 0.08594,0.26563 0.15234,0.39844c0.26563,0.53516 0.51563,1.08594 0.75,1.65234c0.03125,0.06641 0.04688,0.13282 0.04688,0.19922c1.66797,4 2.75,8.23438 3.25,12.69922l22.30078,0c0,-0.03516 0,-0.05078 0,-0.05078c-1.63281,-17.23438 -8.18359,-31.76563 -19.64844,-43.59766"/>
   <path id="svg_11" fill-rule="evenodd" fill="rgb(10.980392%,26.274510%,49.411765%)" d="m260.44922,114.89844c0,0 0,0 0,0c-0.93359,-1.59766 -2.01563,-3.06641 -3.25,-4.39844l-0.05078,-0.05078c-0.83203,-0.86719 -1.71485,-1.64844 -2.64844,-2.34766c-0.03516,-0.03515 -0.05078,-0.0664 -0.05078,-0.10156c-0.46484,-0.33203 -0.93359,-0.64844 -1.39844,-0.94922c-0.0664,-0.03515 -0.13281,-0.0664 -0.19922,-0.10156c-0.96875,-0.63281 -1.96875,-1.18359 -3,-1.64844c-0.0664,-0.03515 -0.13672,-0.0664 -0.20312,-0.10156c-0.53125,-0.19922 -1.04688,-0.39844 -1.54688,-0.59766c-0.10156,-0.03515 -0.20312,-0.0664 -0.30078,-0.10156c-0.53515,-0.16797 -1.0664,-0.33203 -1.60156,-0.5c-0.03125,0 -0.05078,0 -0.05078,0c-0.53125,-0.13281 -1.08203,-0.25 -1.64844,-0.35156c-0.10156,0 -0.19922,-0.01563 -0.30078,-0.04688c-0.53125,-0.0664 -1.08203,-0.13672 -1.64844,-0.20312c-0.10156,0 -0.21875,-0.01563 -0.35156,-0.04688c-0.56641,-0.03515 -1.14844,-0.05078 -1.75,-0.05078c-0.59766,0 -1.18359,0.01563 -1.75,0.05078c-0.09766,0.03125 -0.21484,0.04688 -0.34766,0.04688c-0.53515,0.03515 -1.08593,0.10156 -1.65234,0.20312c-0.09766,0.03125 -0.19922,0.04688 -0.30078,0.04688c-0.53125,0.10156 -1.08203,0.21875 -1.64844,0.35156c0,0 0,0 0,0c-0.56641,0.16797 -1.11719,0.33203 -1.64844,0.5c-0.10156,0.03516 -0.20312,0.06641 -0.30078,0.10156c-0.5,0.16407 -1,0.36328 -1.5,0.59766c-0.0664,0.03516 -0.13281,0.06641 -0.19922,0.10156c-1.0664,0.46485 -2.08593,1 -3.05078,1.59766c-0.0664,0.0664 -0.11719,0.11719 -0.15234,0.15234c-0.5,0.30078 -0.96485,0.61719 -1.39844,0.94922c-0.03516,0.03516 -0.06641,0.06641 -0.10156,0.10156c-0.9336,0.69922 -1.79688,1.48047 -2.59766,2.34766c-0.03515,0.03516 -0.0664,0.05078 -0.10156,0.05078c-1.23438,1.33203 -2.31641,2.80078 -3.25,4.39844c0,0 0,0 0,0c-0.89844,1.60156 -1.61719,3.30078 -2.14844,5.10156c0,0 0,0 0,0l44.30078,0c0,0 0,0 0,0c-0.5,-1.80078 -1.21875,-3.5 -2.15234,-5.10156"/>
   <path id="svg_12" fill-rule="evenodd" fill="rgb(14.901961%,56.862745%,81.568627%)" d="m336.85156,79.39844l-4.20312,-7.29688l-4.19922,-7.25l-15.44922,0.44922c-3.76562,-4.5664 -7.93359,-8.73437 -12.5,-12.5l0.44922,-15.44922l-7.25,-4.20312l-7.30078,-4.19922l-13.09766,8.10156c-5.5,-2.0664 -11.21875,-3.60156 -17.15234,-4.60156l-7.25,-13.55078l-16.84766,0l-7.30078,13.55078c-4.39844,0.76562 -8.69922,1.81641 -12.89844,3.15234c1,4.96485 2.41407,9.78125 4.25,14.44922c3.5,-1.13281 7.09766,-2.03515 10.79688,-2.69922c4.40234,-0.76953 8.91797,-1.15234 13.55078,-1.15234c4.63281,0 9.16797,0.38281 13.60156,1.15234c4.69922,0.83203 9.25,2.06641 13.64844,3.69922c8.66797,3.19922 16.48437,7.71485 23.44922,13.55078c3.66797,3.06641 7.01953,6.39844 10.05078,10c5.83594,7 10.36719,14.83203 13.60156,23.5c0.4336,1.19922 0.83203,2.39844 1.19922,3.59766c4.96484,-1.19922 9.71484,-2.81641 14.25,-4.84766c-0.46484,-1.46875 -0.96484,-2.91797 -1.5,-4.35156l8.10156,-13.10156"/>
   <path id="svg_13" fill-rule="evenodd" fill="rgb(14.901961%,56.862745%,81.568627%)" d="m240.44922,55.10156c-7.19922,0.03125 -14.08203,1.06641 -20.64844,3.09766c3.76563,7.23437 8.44922,13.76562 14.05078,19.60156c2.16407,-0.30078 4.36328,-0.44922 6.59766,-0.44922c9.40234,0.09766 17.81641,2.5 25.25,7.19922c7.46875,4.66406 13.25,10.91406 17.35156,18.75c4.09766,0.59766 8.25,0.89844 12.44922,0.89844c3.96484,0 7.86719,-0.26563 11.69922,-0.80078c-4.86719,-14.26563 -13.25,-25.81641 -25.14844,-34.64844c-11.90234,-8.83203 -25.76562,-13.38281 -41.60156,-13.64844"/>
   <path id="svg_14" fill-rule="evenodd" fill="rgb(100.000000%,100.000000%,100.000000%)" d="m241.14844,37c19.46875,0.30078 36.5664,5.78516 51.30078,16.44922c14.76562,10.66797 25.35156,24.66797 31.75,42c1.06641,-0.33203 2.11719,-0.69922 3.15234,-1.09766c-7.10156,-18.46875 -18.41797,-33.11718 -33.95312,-43.95312c-15.53125,-10.83203 -33.26563,-16.36328 -53.19922,-16.59766c-8.13281,0 -16.09766,1.03125 -23.89844,3.09766c0.30078,1.13672 0.61719,2.25 0.94922,3.35156c7.63281,-2.16797 15.60156,-3.25 23.89844,-3.25"/>
   <path id="svg_15" fill-rule="evenodd" fill="rgb(0.392157%,0.392157%,0.392157%)" d="m387.64844,137.55078c-1.03125,-1.10156 -2.36328,-1.65234 -4,-1.65234c-0.9336,0 -1.96485,0.20312 -3.09766,0.60156l-0.10156,0c-1.63281,0.69922 -4.05078,1.55078 -7.25,2.55078c-3.19922,1 -6.03125,1.55078 -8.5,1.64844c-0.63281,-0.03125 -1.05078,-0.08203 -1.25,-0.14844l-0.19922,0l-0.19922,-0.05078c-0.23437,0.10156 -1.19922,-0.25 -2.90234,-1.05078c-1.69922,-0.83203 -3.28125,-2.78125 -4.75,-5.84766c-0.26563,-0.5664 -0.44922,-1.98437 -0.54688,-4.25c-0.0664,-2.30078 0.83203,-4.36718 2.69922,-6.20312l19.75,-5.89844l0.44922,-0.44922c0.73438,-0.30078 1.33203,-1.83594 1.80078,-4.60156c0.16406,-1.43359 -0.75,-3.18359 -2.75,-5.25l-0.35156,-0.30078l-0.44922,-0.19922c-0.46484,-0.23438 -2.80078,-0.93359 -7,-2.09766c-4.23437,-1.16797 -8.93359,-1.83593 -14.10156,-2c-3.03125,0 -5.6836,0.38282 -7.94922,1.14844c-0.96484,0.06641 -3.18359,0.91797 -6.64844,2.55078c-3.5,1.59766 -6.8164,4.44922 -9.94922,8.55078c-0.63672,0.63282 -2.53515,1.64844 -5.70312,3.04688c-3.19922,1.36719 -7.63281,2.15234 -13.29688,2.35156l-147,0c-4.33593,-0.03516 -8.86718,-0.46484 -13.60156,-1.30078c-4.73437,-0.83203 -7.88281,-2.13281 -9.44922,-3.89844c-0.36719,-0.93359 -2.15234,-2.85156 -5.35156,-5.75c-3.16406,-2.90234 -7.76563,-4.53515 -13.80078,-4.90234c-4.5,0 -9.13281,1.33594 -13.89844,4c-1.26562,0.5 -4.05078,2.35156 -8.35156,5.55078c-4.29688,3.16797 -7.03125,7.01562 -8.19922,11.55078l-0.05078,0.10156l0,0.09766c-0.33203,1 0.20312,2.66797 1.60156,5c1,1.06641 2.30078,1.60156 3.89844,1.60156c0.90234,0 1.86719,-0.18359 2.90234,-0.55078l0.09766,-0.05078c1.53515,-0.63281 3.8164,-1.41406 6.85156,-2.34766c3,-0.96875 5.64844,-1.48437 7.94922,-1.55078c0.56641,0 0.94922,0.03125 1.15234,0.09766l0.14844,0.05078l0.25,0c0.19922,-0.09766 1.08203,0.23437 2.64844,1c1.5664,0.76562 3.03515,2.56641 4.40234,5.40234c0.23438,0.53125 0.39844,1.84766 0.5,3.94922c0.09766,2.09766 -0.71875,4 -2.44922,5.69922l-18.60156,5.55078l-0.39844,0.44922c-0.73437,0.30078 -1.3164,1.78516 -1.75,4.44922c-0.16797,1.36719 0.69922,3.03516 2.59766,5l0.35156,0.30078l0.39844,0.14844c0.33594,0.23437 2.31641,0.86719 5.94922,1.90234c3.66797,1.06641 8.11719,1.66406 13.35156,1.80078c2.86719,0 5.55078,-0.26953 8.05078,-0.80078l0.05078,-0.05078c0.46485,0.03516 2.4336,-0.73437 5.89844,-2.30078c3.43359,-1.56641 6.71484,-4.28125 9.85156,-8.14844c0.69922,-0.69922 2.61328,-1.83594 5.75,-3.40234c3.13282,-1.59766 7.14844,-2.56641 12.04688,-2.89844l146.35156,0c0.03516,-0.03516 0.48438,-0.05078 1.35156,-0.05078c2.16407,-0.13281 5.69922,0.30078 10.59766,1.30078c4.90234,0.96484 9.38281,3.33203 13.44922,7.10156c0.5664,1.23047 2.53515,3.31641 5.90234,6.25c3.33203,2.89844 8.08203,4.53125 14.25,4.89844c4.73438,0 9.61719,-1.41797 14.64844,-4.25c1.36719,-0.53516 4.33594,-2.48437 8.90234,-5.85156c4.53125,-3.36328 7.4336,-7.4336 8.69922,-12.19922l0,-0.19922c0.36719,-1.03516 -0.18359,-2.76562 -1.65234,-5.19922"/>
   <path id="svg_16" fill-rule="evenodd" fill="rgb(28.235294%,28.235294%,29.019608%)" d="m381.39844,138.85156c-0.4336,0.23047 -2.86328,1.08203 -7.29688,2.54688c-4.43359,1.43359 -8.18359,1.96875 -11.25,1.60156c-0.20312,0.16797 -1.41797,-0.25 -3.65234,-1.25c-2.23438,-0.96484 -4.28125,-3.39844 -6.14844,-7.30078c-0.23437,-0.26563 -0.44922,-1.94922 -0.65234,-5.05078c-0.19922,-3.09766 1.13672,-5.9336 4,-8.5l19.60156,-5.84766c0.19922,-0.03515 0.53516,-0.65234 1,-1.85156c0.46484,-1.19922 -0.14844,-2.66406 -1.85156,-4.39844c-0.5,-0.33594 -3.81641,-1.25 -9.94922,-2.75c-6.09766,-1.5 -11.94922,-1.55078 -17.55078,-0.15234c-0.29688,-0.09766 -2.1836,0.58594 -5.64844,2.05078c-3.43359,1.46875 -6.69922,4.25 -9.80078,8.35156c0,0.26563 -1.73438,1.30078 -5.19922,3.09766c-3.5,1.80078 -8.71484,2.83594 -15.64844,3.10156l-147,0c-0.23437,0.03516 -2.08593,-0.05078 -5.55078,-0.25c-3.46875,-0.23437 -7.18359,-0.78516 -11.15234,-1.64844c-3.9336,-0.90234 -6.73047,-2.36718 -8.39844,-4.40234c0,-0.26563 -1.11719,-1.58203 -3.35156,-3.94922c-2.26563,-2.36719 -5.59766,-4.11719 -10,-5.25c-4.4336,-1.16797 -9.91406,-0.05078 -16.44922,3.35156c-0.56641,0.13282 -2.96484,1.69922 -7.19922,4.69922c-4.23437,3 -6.93359,6.53125 -8.10156,10.59766c-0.13281,0.26953 0.03515,1.10156 0.5,2.5c0.46875,1.36719 2,1.70312 4.60156,1c0.43359,-0.23047 2.73438,-1.03125 6.89844,-2.39844c4.16797,-1.36719 7.68359,-1.86719 10.55078,-1.5c0.19922,-0.13281 1.35156,0.25 3.44922,1.14844c2.10156,0.90234 4.01953,3.20312 5.75,6.90234c0.23437,0.26563 0.45312,1.84766 0.65234,4.75c0.19922,2.89844 -1.05078,5.55078 -3.75,7.94922l-18.44922,5.5c-0.20312,0.06641 -0.51953,0.64844 -0.95312,1.75c-0.4336,1.13281 0.15234,2.51563 1.75,4.14844c0.30078,0.26953 3.05078,1.0664 8.25,2.40234c5.23437,1.30078 11.10156,1.41406 17.60156,0.34766c0.30078,0.0664 2.06641,-0.63281 5.30078,-2.09766c3.26563,-1.46875 6.33203,-4.03515 9.19922,-7.69922c0.10156,-0.26953 1.89844,-1.40234 5.39844,-3.40234c3.53515,-2 8.26953,-3.23438 14.20312,-3.69922l146.25,0c0.53125,-0.26562 3.88282,-0.01562 10.04688,0.75c6.16797,0.76563 12,3.63281 17.5,8.60156c0,0.29688 1.20312,1.69922 3.60156,4.19922c2.36719,2.53125 5.89844,4.39844 10.60156,5.59766c4.69922,1.23437 10.53125,0.05078 17.5,-3.54688c0.59766,-0.16797 3.14844,-1.83593 7.64844,-5c4.5,-3.16797 7.36719,-6.91797 8.60156,-11.25c0.13282,-0.30078 -0.05078,-1.18359 -0.55078,-2.65234c-0.46875,-1.5 -2.10156,-1.86719 -4.90234,-1.09766"/>
   <path id="svg_17" fill-rule="evenodd" fill="rgb(50.980392%,50.980392%,50.980392%)" d="m357,160.75c-5.36719,-0.36719 -9.43359,-1.88281 -12.19922,-4.55078c-2.76562,-2.66406 -4.16797,-4.21484 -4.19922,-4.64844l-0.10156,-0.19922l-0.14844,-0.15234c-4.5664,-4.36719 -9.55078,-7.16406 -14.95312,-8.39844c-5.39844,-1.19922 -9.59766,-1.73437 -12.59766,-1.60156c-0.83594,0 -1.35156,0.01562 -1.55078,0.05078l-146.19922,0c-6.26562,0.46484 -11.25,1.73438 -14.94922,3.80078c-3.73437,2.06641 -5.71875,3.31641 -5.95312,3.75l-0.19922,0.14844l-0.14844,0.19922c-2.60156,3.33594 -5.40234,5.68359 -8.40234,7.05078c-3,1.33594 -4.64844,1.98437 -4.94922,1.94922c-2.13281,0.46875 -4.44922,0.70312 -6.94922,0.70312c-4.19922,-0.10156 -7.89844,-0.55078 -11.10156,-1.35156c-3.19922,-0.83203 -5.26563,-1.44922 -6.19922,-1.85156c-0.5,-0.46485 -0.78125,-0.98047 -0.84766,-1.54688c0,-0.33593 0.06641,-0.60156 0.19922,-0.80078l18.09766,-5.40234l0.30078,-0.25c3.23437,-2.83203 4.76562,-5.91406 4.60156,-9.25c-0.16797,-3.33203 -0.41797,-5.25 -0.75,-5.75l-0.05078,-0.14844c-1.80078,-3.86719 -3.85156,-6.39844 -6.14844,-7.60156c-2.30078,-1.16406 -3.83593,-1.73047 -4.60156,-1.69922c-0.63281,-0.09766 -1.33203,-0.16406 -2.10156,-0.19922c-3.26563,0.16797 -6.69922,0.86719 -10.29688,2.10156c-3.60156,1.19922 -5.65234,1.91407 -6.15234,2.14844c-0.63281,0.19922 -1.08203,0.30078 -1.34766,0.30078c-0.36718,-0.03515 -0.55078,-0.08594 -0.55078,-0.15234c-0.30078,-0.5 -0.43359,-1.01563 -0.40234,-1.54688c0.76953,-2.90234 2.80078,-5.63672 6.10156,-8.20312c3.26563,-2.59766 5.96484,-4.4336 8.10156,-5.5c4.16407,-2.29688 8.09766,-3.44922 11.79688,-3.44922c4.96875,0.33594 8.73437,1.71875 11.30078,4.15234c2.56641,2.4336 3.90234,3.91407 4,4.44922l0.10156,0.09766c1.80078,2.23437 4.64844,3.86719 8.55078,4.90234c3.89844,1 7.66407,1.63281 11.29688,1.89844c3.63672,0.26562 5.93359,0.38281 6.90234,0.35156l147.05078,0c7.23047,-0.30078 12.69922,-1.38281 16.39844,-3.25c3.69922,-1.90234 5.63281,-3.05078 5.80078,-3.44922l0.19922,-0.15234l0.14844,-0.25c2.76953,-3.69922 5.73437,-6.23438 8.90234,-7.59766c3.16406,-1.36718 4.89844,-2.01953 5.19922,-1.95312l0.14844,0l0.10156,-0.04688c1.83203,-0.63672 4.05078,-0.95312 6.64844,-0.95312c4.20312,0.10156 8.15234,0.63672 11.85156,1.60156c3.69922,0.96484 6.13281,1.66797 7.30078,2.10156c0.53125,0.5 0.84766,1.08203 0.94922,1.75c-0.03516,0.39844 -0.11719,0.71485 -0.25,0.94922l-19.30078,5.75l-0.30078,0.19922c-3.39844,3 -5.01563,6.26563 -4.84766,9.80078c0.16406,3.53125 0.4336,5.55078 0.80078,6.05078l0.04688,0.14844c1.90234,4.10156 4.0664,6.76563 6.5,8c2.43359,1.23438 4.05078,1.83203 4.85156,1.80078c0.63281,0.13281 1.36719,0.19922 2.19922,0.19922c3.43359,-0.16797 7.06641,-0.89844 10.90234,-2.19922c3.83203,-1.26562 6.01563,-2.03515 6.54688,-2.30078c0.53515,-0.19922 1.01953,-0.30078 1.45312,-0.30078c0.46485,0.03516 0.69922,0.10156 0.69922,0.19922c0.33203,0.5664 0.48438,1.15234 0.44922,1.75c-0.83203,3.10156 -3,6.03515 -6.5,8.80078c-3.5,2.76562 -6.38281,4.71875 -8.64844,5.85156c-4.43359,2.46485 -8.63672,3.69922 -12.60156,3.69922"/>
   <path id="svg_18" fill-rule="evenodd" fill="rgb(72.941176%,73.333333%,74.117647%)" d="m143.80078,124.05078c-7.60156,0 -14.98437,0.28125 -22.15234,0.84766c2.26953,1.20312 4.3164,3.73437 6.15234,7.60156l0.05078,0.14844c0.33203,0.46875 0.56641,2.36719 0.69922,5.70312c0.16406,3.36328 -1.36719,6.46485 -4.60156,9.29688l-0.30078,0.20312l-18.09766,5.39844c-0.13281,0.23438 -0.19922,0.5 -0.19922,0.80078c0.09766,0.59766 0.38282,1.11719 0.84766,1.55078c0.93359,0.39844 3,1.01563 6.19922,1.84766c3.20312,0.83594 6.90234,1.30078 11.10156,1.40234c2.53516,0 4.86719,-0.23437 7,-0.70312c0.30078,0.03515 1.93359,-0.63281 4.89844,-2c3,-1.33203 5.80078,-3.66406 8.40234,-7l0.14844,-0.19922l0.19922,-0.19922c0.26953,-0.39844 2.25,-1.63281 5.95312,-3.69922c3.69922,-2.10156 8.69922,-3.38281 15,-3.85156l68.84766,0c-11,-5.30078 -24.21484,-9.46484 -39.64844,-12.5c-15.46875,-3.03125 -32.30078,-4.58203 -50.5,-4.64844"/>
   <path id="svg_19" fill-rule="evenodd" fill="rgb(72.941176%,73.333333%,74.117647%)" d="m354.89844,106.89844c-2.59766,0 -4.79688,0.3164 -6.59766,0.95312l-0.15234,0.04688l-0.09766,0c-0.33594,-0.06641 -2.08594,0.58594 -5.25,1.95312c-3.16797,1.36328 -6.13281,3.89844 -8.90234,7.59766l-0.14844,0.25l-0.19922,0.15234c-0.16797,0.39844 -2.10156,1.54688 -5.80078,3.44922c-3.69922,1.86719 -9.16797,2.94922 -16.39844,3.25l-36.90234,0c21.40234,5.63281 46.85156,8.80078 76.35156,9.5c-0.46875,-1.53515 -0.58594,-3.78515 -0.35156,-6.75c0.26562,-2.96875 1.83594,-5.65234 4.69922,-8.05078l0.30078,-0.19922l19.30078,-5.75c0.16797,-0.23437 0.25,-0.55078 0.25,-0.94922c-0.10156,-0.66797 -0.41797,-1.25 -0.94922,-1.75c-1.13281,-0.43359 -3.5664,-1.13672 -7.30078,-2.10156c-3.69922,-0.96484 -7.64844,-1.5 -11.85156,-1.60156"/>
   <path id="svg_20" fill-rule="evenodd" fill="rgb(28.235294%,28.235294%,29.019608%)" d="m345.85156,109.25c0,0 -0.35156,0.13281 -1.05078,0.39844c-0.33594,0.13672 -0.73437,0.3164 -1.19922,0.55078c-0.5,0.19922 -1.03515,0.48437 -1.60156,0.85156c-1.19922,0.63281 -2.46484,1.61719 -3.80078,2.94922c-1.30078,1.33203 -2.39844,3.06641 -3.30078,5.19922c-0.83203,2.13281 -1.29688,4.53516 -1.39844,7.19922c-0.10156,2.63672 0.13281,5.35156 0.69922,8.15234c0.56641,2.83203 1.53516,5.59766 2.90234,8.30078c1.33203,2.69922 3,5.19922 5,7.5c2.03125,2.33203 4.38282,4.1836 7.04688,5.54688c1.30078,0.66797 2.66797,1.16797 4.10156,1.5c0.69922,0.16797 1.39844,0.30078 2.10156,0.40234c0.73047,0.09766 1.44922,0.14844 2.14844,0.14844c0.69922,0.03516 1.39844,0.01562 2.10156,-0.05078c0.36328,0 0.69922,-0.01563 1,-0.04688c0.33203,-0.0664 0.66407,-0.15234 1,-0.25c1.33203,-0.30078 2.61328,-0.68359 3.84766,-1.15234c2.46875,-0.93359 4.68359,-2 6.65234,-3.19922c0.96485,-0.63281 1.88282,-1.25 2.75,-1.85156c0.39844,-0.33203 0.79688,-0.64844 1.19922,-0.94922c0.39844,-0.30078 0.76563,-0.59766 1.09766,-0.89844c0.73437,-0.63281 1.36719,-1.23437 1.90234,-1.80078c0.59766,-0.56641 1.11719,-1.11719 1.55078,-1.64844c0.86328,-1.03515 1.5,-1.85156 1.89844,-2.45312c0.43359,-0.59766 0.64844,-0.89844 0.64844,-0.89844c0,0 -0.19922,0.30078 -0.59766,0.89844c-0.36719,0.66797 -0.96875,1.53515 -1.80078,2.60156c-0.39844,0.53516 -0.88281,1.10156 -1.44922,1.69922c-0.53515,0.63281 -1.15234,1.26562 -1.85156,1.90234c-1.36719,1.33203 -3.03125,2.64844 -5,3.94922c-1.96484,1.26563 -4.19922,2.41406 -6.69922,3.44922c-1.23437,0.5 -2.53516,0.93359 -3.89844,1.30078c-0.36718,0.09766 -0.71875,0.19922 -1.05078,0.30078c-0.40234,0.03125 -0.78515,0.06641 -1.15234,0.09766c-0.69922,0.06641 -1.4336,0.08594 -2.19922,0.05078c-0.73438,0 -1.46484,-0.05078 -2.19922,-0.14844c-0.76562,-0.10156 -1.51562,-0.23437 -2.25,-0.40234c-1.5,-0.33203 -2.94922,-0.84766 -4.35156,-1.55078c-2.83203,-1.4336 -5.29688,-3.34766 -7.39844,-5.75c-2.10156,-2.39844 -3.81641,-5.01563 -5.14844,-7.84766c-1.36718,-2.76562 -2.33593,-5.61719 -2.90234,-8.55078c-1.13281,-5.96484 -0.76563,-11.23437 1.10156,-15.80078c0.96485,-2.19922 2.16406,-3.94922 3.59766,-5.25c1.40234,-1.33203 2.73437,-2.28125 4,-2.84766c0.60156,-0.33593 1.15234,-0.60156 1.65234,-0.80078c0.46485,-0.19922 0.88281,-0.35156 1.25,-0.44922c0.66406,-0.23437 1.01563,-0.35156 1.05078,-0.35156"/>
   <path id="svg_21" fill-rule="evenodd" fill="rgb(28.235294%,28.235294%,29.019608%)" d="m144,144.39844c0,0 0.64844,-0.31641 1.94922,-0.94922c1.30078,-0.63281 3.21875,-1.36719 5.75,-2.19922c1.23437,-0.43359 2.63281,-0.83203 4.19922,-1.19922c0.76953,-0.19922 1.58594,-0.38281 2.45312,-0.55078c0.83203,-0.16797 1.71485,-0.31641 2.64844,-0.44922c0.89844,-0.16797 1.83203,-0.28515 2.80078,-0.35156c1,-0.06641 2.01563,-0.13281 3.05078,-0.19922c0.5,-0.03516 1.01563,-0.06641 1.54688,-0.10156c0.53515,0 1.08594,0 1.65234,0c1.06641,0 2.16406,-0.01563 3.30078,-0.04688c9.19922,-0.03515 19.53125,-0.08593 31,-0.15234c11.46485,-0.03125 23.29688,-0.06641 35.5,-0.09766c12.23047,0.03125 24.08203,0.06641 35.54688,0.09766c11.46875,0.06641 21.80078,0.11719 31,0.15234c1.10156,0.03125 2.20312,0.04688 3.30078,0.04688c0.53516,0 1.06641,0 1.60156,0c0.53125,0.03515 1.06641,0.0664 1.59766,0.10156c1.03515,0.06641 2.03515,0.13281 3,0.19922c1,0.06641 1.95312,0.18359 2.85156,0.35156c0.93359,0.13281 1.81641,0.28125 2.64844,0.44922c0.83594,0.16797 1.65234,0.35156 2.45312,0.55078c1.53125,0.36719 2.9336,0.76563 4.19922,1.19922c2.53125,0.83203 4.44922,1.56641 5.75,2.19922c1.26563,0.63281 1.91406,0.94922 1.94922,0.94922c-0.03516,0 -0.69922,-0.29688 -2,-0.89844c-1.30078,-0.60156 -3.21484,-1.28516 -5.75,-2.05078c-1.26562,-0.39844 -2.68359,-0.76563 -4.25,-1.09766c-0.76562,-0.16797 -1.56641,-0.33593 -2.39844,-0.5c-0.86718,-0.13672 -1.75,-0.25 -2.65234,-0.35156c-0.89844,-0.13281 -1.83203,-0.23437 -2.80078,-0.30078c-1,-0.03125 -2.01563,-0.06641 -3.04688,-0.09766c-0.5,-0.03515 -1.01953,-0.05078 -1.55078,-0.05078c-0.53515,0 -1.0664,0 -1.60156,0c-1.06641,0 -2.16406,0 -3.30078,0c-9.19922,0.06641 -19.53125,0.13281 -31,0.19922c-11.46485,0.03516 -23.31641,0.06641 -35.54688,0.10156c-12.20312,-0.03515 -24.03515,-0.0664 -35.5,-0.10156c-11.46875,-0.06641 -21.80078,-0.13281 -31,-0.19922c-1.13672,0 -2.23437,0 -3.30078,0c-0.5664,0 -1.11719,0 -1.65234,0c-0.5,0 -1.01563,0.01563 -1.54688,0.05078c-1.03515,0.03125 -2.03515,0.06641 -3,0.09766c-0.96875,0.06641 -1.90234,0.16797 -2.80078,0.30078c-0.93359,0.10156 -1.8164,0.21484 -2.65234,0.35156c-0.83203,0.16407 -1.64844,0.33203 -2.44922,0.5c-1.53125,0.33203 -2.93359,0.69922 -4.19922,1.09766c-2.53516,0.76562 -4.46484,1.44922 -5.80078,2.05078c-1.30078,0.60156 -1.94922,0.89844 -1.94922,0.89844"/>
   <path id="svg_22" fill-rule="evenodd" fill="rgb(28.235294%,28.235294%,29.019608%)" d="m105.64844,152.5c0.03515,0.03516 0.78515,0.26563 2.25,0.69922c1.43359,0.46875 3.41797,0.93359 5.95312,1.40234c1.26563,0.23047 2.61328,0.39844 4.04688,0.5c1.46875,0.09766 2.98437,0.11328 4.55078,0.04688c1.56641,-0.06641 3.16797,-0.26563 4.80078,-0.59766c0.76563,-0.19922 1.55078,-0.41797 2.35156,-0.65234c0.79688,-0.29688 1.58203,-0.59766 2.34766,-0.89844c1.5,-0.66797 2.90234,-1.51562 4.19922,-2.55078c1.33594,-0.96484 2.5,-2.05078 3.5,-3.25c0.5,-0.59766 0.96875,-1.21484 1.40234,-1.84766c0.39844,-0.60156 0.76563,-1.21875 1.09766,-1.85156c0.30078,-0.66797 0.58594,-1.30078 0.85156,-1.89844c0.23438,-0.63672 0.43359,-1.25 0.60156,-1.85156c0.16407,-0.63281 0.28125,-1.23437 0.34766,-1.80078c0.10156,-0.56641 0.16797,-1.09766 0.19922,-1.59766c0.03515,-0.5 0.05078,-0.98437 0.05078,-1.45312c0.03516,-0.19922 0.05078,-0.41406 0.05078,-0.64844c-0.03516,-0.19922 -0.05078,-0.38281 -0.05078,-0.55078c-0.09766,-1.53125 -0.14844,-2.31641 -0.14844,-2.34766c0,0.03125 0.13281,0.79688 0.39844,2.29688c0.03516,0.20312 0.06641,0.40234 0.10156,0.60156c0,0.19922 0,0.41797 0,0.64844c0.03125,0.46875 0.05078,0.95312 0.05078,1.45312c0.03125,0.53125 0.01563,1.09766 -0.05078,1.69922c-0.03515,0.30078 -0.0664,0.59766 -0.10156,0.89844c-0.03125,0.30078 -0.09766,0.61719 -0.19922,0.94922c-0.13281,0.63672 -0.30078,1.28515 -0.5,1.95312c-0.23437,0.66407 -0.48437,1.34766 -0.75,2.04688c-0.33203,0.66797 -0.69922,1.35156 -1.10156,2.05078c-0.4336,0.66797 -0.89844,1.31641 -1.39844,1.94922c-0.26562,0.30078 -0.53516,0.61719 -0.80078,0.95312c-0.30078,0.29688 -0.59766,0.59766 -0.89844,0.89844c-0.60156,0.60156 -1.23437,1.14844 -1.90234,1.64844c-1.36328,1.10156 -2.84766,2.01953 -4.44922,2.75c-0.83203,0.30078 -1.64844,0.60156 -2.44922,0.90234c-0.83203,0.23438 -1.66797,0.44922 -2.5,0.64844c-1.69922,0.33594 -3.36719,0.51562 -5,0.55078c-1.63281,0.03516 -3.18359,-0.05078 -4.64844,-0.25c-1.5,-0.19922 -2.86718,-0.43359 -4.10156,-0.69922c-2.56641,-0.63281 -4.55078,-1.25 -5.94922,-1.85156c-1.40234,-0.59766 -2.11719,-0.91406 -2.15234,-0.94922"/>
   <path id="svg_23" fill-rule="evenodd" fill="rgb(28.235294%,28.235294%,29.019608%)" d="m141.10156,126.5c0,-0.03516 -0.16797,-0.36719 -0.5,-1c-0.33593,-0.66797 -0.83593,-1.51562 -1.5,-2.55078c-0.30078,-0.5 -0.65234,-1.03125 -1.05078,-1.59766c-0.40234,-0.5664 -0.83594,-1.15234 -1.30078,-1.75c-0.46484,-0.5664 -0.96484,-1.15234 -1.5,-1.75c-0.5,-0.5664 -1.05078,-1.11718 -1.64844,-1.65234l-0.85156,-0.80078c-0.30078,-0.26563 -0.61719,-0.51563 -0.94922,-0.75c-0.30078,-0.23047 -0.60156,-0.46485 -0.90234,-0.69922c-0.29688,-0.23438 -0.61328,-0.44922 -0.94922,-0.64844c-0.59766,-0.40234 -1.21484,-0.75 -1.84766,-1.05078c-0.30078,-0.16797 -0.58593,-0.33203 -0.85156,-0.5c-0.30078,-0.13281 -0.58203,-0.25 -0.85156,-0.35156c-0.56641,-0.26563 -1.06641,-0.48047 -1.5,-0.64844c-0.5,-0.16797 -0.91406,-0.30078 -1.25,-0.39844c-0.66406,-0.23437 -1.01563,-0.35156 -1.04688,-0.35156c0,0 0.36328,0.03516 1.09766,0.10156c0.36719,0.06641 0.80078,0.13282 1.30078,0.19922c0.5,0.09766 1.05078,0.23438 1.64844,0.39844c0.30078,0.10156 0.60156,0.19922 0.90234,0.30078c0.33203,0.13281 0.64844,0.26563 0.94922,0.39844c0.33203,0.13672 0.68359,0.28515 1.05078,0.45312c0.33203,0.13282 0.66406,0.31641 1,0.54688c0.33203,0.16797 0.66406,0.36719 1,0.60156c0.33203,0.19922 0.66406,0.43359 1,0.69922c0.33203,0.23437 0.66406,0.48437 1,0.75l0.89844,0.85156c0.60156,0.56641 1.16797,1.14844 1.69922,1.75c0.53515,0.63281 1.03515,1.26563 1.5,1.89844c0.86719,1.30078 1.5664,2.51562 2.10156,3.65234c0.5,1.16407 0.85156,2.09766 1.05078,2.79688c0.23438,0.70312 0.33203,1.0664 0.30078,1.10156"/>
   <path id="svg_24" fill-rule="evenodd" fill="rgb(28.235294%,28.235294%,29.019608%)" d="m125,128.10156c-0.53516,-0.73437 -1.08203,-1.45312 -1.64844,-2.15234c-0.5664,-0.66406 -1.16797,-1.31641 -1.80078,-1.94922c-0.60156,-0.63281 -1.25,-1.21484 -1.94922,-1.75c-0.16797,-0.13281 -0.33593,-0.25 -0.5,-0.35156c-0.16797,-0.13281 -0.35156,-0.25 -0.55078,-0.34766c-0.36719,-0.19922 -0.73437,-0.36719 -1.10156,-0.5l0.19922,0.05078c-0.79688,0.06641 -1.59766,0.16407 -2.39844,0.29688c-0.83203,0.10156 -1.64844,0.21875 -2.44922,0.35156c-0.80078,0.13281 -1.60156,0.26563 -2.40234,0.39844l-2.39844,0.5l-2.39844,0.55078c-0.80078,0.19922 -1.58593,0.41797 -2.35156,0.65234l-1.19922,0.34766c-0.36719,0.10156 -0.75,0.23437 -1.15234,0.40234c-0.73047,0.29688 -1.5,0.58203 -2.29688,0.84766l0.04688,0c-0.29688,0.16797 -0.61328,0.28516 -0.94922,0.35156c-0.30078,0.09766 -0.63281,0.11719 -1,0.05078c-0.16406,-0.0664 -0.31641,-0.15234 -0.44922,-0.25c-0.13281,-0.10156 -0.23437,-0.23437 -0.30078,-0.40234c-0.16406,-0.26563 -0.26563,-0.56641 -0.30078,-0.89844c0.10156,0.30078 0.23437,0.56641 0.40234,0.80078c0.09766,0.13282 0.21485,0.23047 0.34766,0.29688c0.10156,0.0664 0.23437,0.11719 0.40234,0.15234c0.26563,0.03125 0.53125,0 0.80078,-0.10156c0.26563,-0.13281 0.51563,-0.28125 0.75,-0.44922l0.04688,0c0.73437,-0.39844 1.46875,-0.78516 2.20312,-1.14844c0.36328,-0.20312 0.75,-0.36718 1.14844,-0.5l1.19922,-0.45312l1.15234,-0.39844c0.39844,-0.13281 0.79688,-0.25 1.19922,-0.35156l2.39844,-0.69922l2.44922,-0.5c0.83594,-0.16406 1.65234,-0.30078 2.45312,-0.39844c1.66407,-0.26562 3.33203,-0.44922 5,-0.55078l0.09766,0l0.10156,0.05078l0.64844,0.30078c0.23437,0.09766 0.44922,0.21485 0.65234,0.34766c0.19922,0.13281 0.38282,0.26562 0.54688,0.40234c0.20312,0.13282 0.38672,0.28125 0.55078,0.44922c0.69922,0.59766 1.33594,1.26563 1.90234,2c0.56641,0.69922 1.08203,1.4336 1.54688,2.19922c0.5,0.73438 0.95312,1.51563 1.35156,2.35156"/>
   <path id="svg_25" fill-rule="evenodd" fill="rgb(28.235294%,28.235294%,29.019608%)" d="m349.85156,123.75c-0.03515,0 0,-0.41797 0.09766,-1.25c0.10156,-0.36719 0.25,-0.81641 0.44922,-1.35156c0.20312,-0.53125 0.51953,-1.09766 0.95312,-1.69922c0.39844,-0.56641 0.89844,-1.11719 1.5,-1.64844c0.33203,-0.23437 0.66407,-0.48437 1,-0.75c0.36328,-0.19922 0.75,-0.41797 1.14844,-0.65234c0.76563,-0.39844 1.58203,-0.73047 2.44922,-1c0.43359,-0.16406 0.88281,-0.29688 1.35156,-0.39844l1.30078,-0.30078c1.79688,-0.36719 3.53125,-0.71484 5.19922,-1.05078c1.66406,-0.29688 3.1836,-0.54688 4.55078,-0.75c1.33203,-0.23047 2.26563,-0.64844 2.79688,-1.25c0.20312,-0.29688 0.28515,-0.56641 0.25,-0.79688c-0.03125,-0.20312 -0.04688,-0.30078 -0.04688,-0.30078c0,0 0.03125,0.09766 0.09766,0.30078c0.10156,0.23047 0.06641,0.54688 -0.09766,0.94922c-0.5,0.80078 -1.45312,1.39844 -2.85156,1.80078c-1.33203,0.33203 -2.81641,0.71485 -4.44922,1.14844c-1.66797,0.39844 -3.38281,0.80078 -5.15234,1.19922l-1.34766,0.25c-0.40234,0.10156 -0.8164,0.21875 -1.25,0.35156c-0.80078,0.23438 -1.58594,0.51563 -2.35156,0.84766c-0.36719,0.16797 -0.71484,0.35156 -1.05078,0.55078c-0.33203,0.19922 -0.64844,0.40234 -0.94922,0.60156c-0.59766,0.4336 -1.11719,0.88281 -1.55078,1.34766c-0.46485,0.5 -0.83203,0.98437 -1.09766,1.45312c-0.26562,0.46485 -0.46875,0.88282 -0.60156,1.25c-0.26563,0.73047 -0.38281,1.11328 -0.34766,1.14844"/>
  </g>
 </g>
</svg>