<svg xmlns="http://www.w3.org/2000/svg" width="480pt" height="290pt" viewBox="0 0 480 290" version="1.1" xmlns:xlink="http://www.w3.org/1999/xlink">
  <g id="surface2" transform="matrix(1,0,0,1,-0.5,-0.5)" data-tpl_matrix="1,0,0,1,-0.5,-0.5">
    <path style="stroke:none;fill-rule:evenodd;fill:rgb(0.392157%,0.392157%,0.392157%);fill-opacity:1" d="M 335.550781 108 C 334.582031 102.765625 333.214844 97.699219 331.449219 92.800781 L 339.75 79.449219 L 329.851562 62.300781 L 314.050781 62.75 C 310.683594 58.785156 307 55.101562 303 51.699219 L 303.5 35.949219 L 286.351562 26.050781 L 273 34.300781 C 268.066406 32.535156 262.984375 31.167969 257.75 30.199219 L 250.351562 16.398438 L 230.550781 16.398438 L 223.148438 30.199219 C 217.882812 31.167969 212.800781 32.535156 207.898438 34.300781 L 194.550781 26.050781 L 177.398438 35.949219 L 177.898438 51.699219 C 173.898438 55.101562 170.199219 58.785156 166.800781 62.75 L 151.101562 62.300781 L 141.199219 79.449219 L 149.449219 92.75 C 147.683594 97.683594 146.316406 102.765625 145.351562 108 L 138.699219 111.550781 C 140.167969 113.25 141.015625 114.332031 141.25 114.800781 C 141.851562 115.566406 142.816406 116.234375 144.148438 116.800781 C 144.148438 116.800781 144.148438 116.800781 144.148438 116.800781 C 144.449219 116.933594 144.75 117.050781 145.050781 117.148438 C 145.117188 117.183594 145.167969 117.199219 145.199219 117.199219 C 145.832031 117.433594 146.5 117.648438 147.199219 117.851562 C 147.234375 117.882812 147.285156 117.898438 147.351562 117.898438 C 147.714844 118 148.082031 118.101562 148.449219 118.199219 C 148.484375 118.199219 148.515625 118.199219 148.550781 118.199219 C 148.882812 118.300781 149.234375 118.382812 149.601562 118.449219 C 149.667969 118.449219 149.714844 118.464844 149.75 118.5 C 150.148438 118.566406 150.550781 118.632812 150.949219 118.699219 C 150.984375 118.734375 151.035156 118.75 151.101562 118.75 C 151.5 118.816406 151.898438 118.882812 152.300781 118.949219 C 152.300781 118.949219 152.316406 118.949219 152.351562 118.949219 C 152.75 119.015625 153.148438 119.082031 153.550781 119.148438 C 153.648438 119.183594 153.734375 119.199219 153.800781 119.199219 C 154.632812 119.300781 155.464844 119.398438 156.300781 119.5 C 156.367188 119.5 156.449219 119.515625 156.550781 119.550781 C 156.949219 119.582031 157.351562 119.617188 157.75 119.648438 C 157.816406 119.648438 157.867188 119.648438 157.898438 119.648438 C 158.300781 119.683594 158.683594 119.714844 159.050781 119.75 C 159.117188 119.75 159.183594 119.75 159.25 119.75 C 159.648438 119.785156 160.050781 119.816406 160.449219 119.851562 C 160.515625 119.851562 160.582031 119.851562 160.648438 119.851562 C 161.015625 119.882812 161.367188 119.898438 161.699219 119.898438 C 161.765625 119.898438 161.816406 119.898438 161.851562 119.898438 C 162.25 119.933594 162.632812 119.949219 163 119.949219 C 163.066406 119.949219 163.132812 119.949219 163.199219 119.949219 C 163.601562 119.984375 163.964844 120 164.300781 120 L 311.351562 120 C 317.015625 119.800781 321.433594 119 324.601562 117.601562 C 327.800781 116.234375 329.714844 115.234375 330.351562 114.601562 C 330.714844 114.035156 331.101562 113.5 331.5 113 C 331.535156 112.964844 331.566406 112.933594 331.601562 112.898438 C 332.035156 112.398438 332.464844 111.917969 332.898438 111.449219 C 332.898438 111.449219 332.917969 111.433594 332.949219 111.398438 C 333.851562 110.5 334.765625 109.667969 335.699219 108.898438 C 335.734375 108.898438 335.734375 108.898438 335.699219 108.898438 C 335.933594 108.734375 336.148438 108.582031 336.351562 108.449219 L 335.550781 108 "/>
    <path style="stroke:none;fill-rule:evenodd;fill:rgb(0.392157%,0.392157%,0.392157%);fill-opacity:1" d="M 296.851562 69.898438 C 296.148438 69.167969 295.417969 68.449219 294.648438 67.75 C 294.515625 67.617188 294.367188 67.464844 294.199219 67.300781 C 293.5 66.667969 292.800781 66.050781 292.101562 65.449219 C 291.867188 65.25 291.632812 65.050781 291.398438 64.851562 C 290.734375 64.285156 290.066406 63.734375 289.398438 63.199219 C 289.101562 62.964844 288.785156 62.734375 288.449219 62.5 C 287.816406 62 287.167969 61.515625 286.5 61.050781 C 286.167969 60.785156 285.816406 60.535156 285.449219 60.300781 C 284.816406 59.867188 284.183594 59.433594 283.550781 59 C 283.117188 58.734375 282.699219 58.464844 282.300781 58.199219 C 281.699219 57.832031 281.082031 57.464844 280.449219 57.101562 C 279.984375 56.832031 279.515625 56.566406 279.050781 56.300781 C 278.449219 55.964844 277.832031 55.632812 277.199219 55.300781 C 276.734375 55.035156 276.25 54.785156 275.75 54.550781 C 275.148438 54.214844 274.535156 53.917969 273.898438 53.648438 C 273.367188 53.382812 272.832031 53.132812 272.300781 52.898438 C 271.699219 52.632812 271.101562 52.382812 270.5 52.148438 C 269.933594 51.917969 269.367188 51.683594 268.800781 51.449219 C 268.199219 51.214844 267.601562 51 267 50.800781 C 266.398438 50.566406 265.800781 50.367188 265.199219 50.199219 C 264.601562 50 264 49.800781 263.398438 49.601562 C 262.765625 49.433594 262.132812 49.25 261.5 49.050781 C 260.933594 48.882812 260.351562 48.734375 259.75 48.601562 C 259.082031 48.433594 258.417969 48.285156 257.75 48.148438 C 257.183594 47.984375 256.601562 47.851562 256 47.75 C 255.300781 47.617188 254.601562 47.484375 253.898438 47.351562 C 253.332031 47.25 252.765625 47.167969 252.199219 47.101562 C 251.433594 46.964844 250.683594 46.867188 249.949219 46.800781 C 249.417969 46.734375 248.882812 46.667969 248.351562 46.601562 C 247.484375 46.535156 246.617188 46.464844 245.75 46.398438 C 245.316406 46.367188 244.867188 46.332031 244.398438 46.300781 C 243.101562 46.234375 241.785156 46.199219 240.449219 46.199219 C 239.117188 46.199219 237.785156 46.234375 236.449219 46.300781 C 236.015625 46.332031 235.582031 46.367188 235.148438 46.398438 C 234.25 46.464844 233.382812 46.535156 232.550781 46.601562 C 232.015625 46.667969 231.484375 46.734375 230.949219 46.800781 C 230.183594 46.867188 229.417969 46.964844 228.648438 47.101562 C 228.082031 47.167969 227.515625 47.25 226.949219 47.351562 C 226.25 47.484375 225.550781 47.617188 224.851562 47.75 C 224.25 47.882812 223.667969 48.015625 223.101562 48.148438 C 222.433594 48.285156 221.765625 48.433594 221.101562 48.601562 C 220.5 48.765625 219.917969 48.933594 219.351562 49.101562 C 218.683594 49.265625 218.035156 49.449219 217.398438 49.648438 C 216.832031 49.816406 216.25 50 215.648438 50.199219 C 215.015625 50.398438 214.417969 50.601562 213.851562 50.800781 C 213.214844 51.035156 212.601562 51.265625 212 51.5 C 211.433594 51.734375 210.867188 51.949219 210.300781 52.148438 C 209.699219 52.417969 209.101562 52.683594 208.5 52.949219 C 207.964844 53.183594 207.433594 53.433594 206.898438 53.699219 C 206.265625 53.964844 205.648438 54.265625 205.050781 54.601562 C 204.550781 54.832031 204.050781 55.082031 203.550781 55.351562 C 202.949219 55.683594 202.332031 56.015625 201.699219 56.351562 C 201.265625 56.617188 200.816406 56.882812 200.351562 57.148438 C 199.714844 57.515625 199.101562 57.898438 198.5 58.300781 C 198.066406 58.566406 197.632812 58.832031 197.199219 59.101562 C 196.566406 59.535156 195.949219 59.949219 195.351562 60.351562 C 194.949219 60.648438 194.566406 60.933594 194.199219 61.199219 C 193.566406 61.632812 192.933594 62.101562 192.300781 62.601562 C 191.964844 62.867188 191.632812 63.132812 191.300781 63.398438 C 190.632812 63.898438 190 64.417969 189.398438 64.949219 C 189.101562 65.183594 188.800781 65.433594 188.5 65.699219 C 187.867188 66.265625 187.234375 66.851562 186.601562 67.449219 C 186.332031 67.648438 186.082031 67.867188 185.851562 68.101562 C 185.183594 68.734375 184.535156 69.382812 183.898438 70.050781 C 183.734375 70.214844 183.550781 70.398438 183.351562 70.601562 C 182.683594 71.332031 182.015625 72.050781 181.351562 72.75 C 181.25 72.917969 181.132812 73.066406 181 73.199219 C 180.300781 73.964844 179.617188 74.765625 178.949219 75.601562 C 178.882812 75.667969 178.832031 75.714844 178.800781 75.75 C 168.667969 88.285156 162.898438 103.015625 161.5 119.949219 C 161.5 119.949219 161.5 119.949219 161.5 119.949219 C 162.367188 119.984375 163.199219 120 164 120 C 165.832031 99.601562 173.851562 82.734375 188.050781 69.398438 C 202.214844 56.066406 219.683594 49.167969 240.449219 48.699219 C 261.117188 49.167969 278.535156 56.035156 292.699219 69.300781 C 306.867188 82.535156 314.933594 99.300781 316.898438 119.601562 C 317.734375 119.5 318.550781 119.367188 319.351562 119.199219 C 317.449219 99.734375 310 83.351562 297 70.050781 C 296.964844 70.015625 296.917969 69.964844 296.851562 69.898438 "/>
    <path style="stroke:none;fill-rule:evenodd;fill:rgb(100.000000%,100.000000%,100.000000%);fill-opacity:1" d="M 240.449219 48.648438 C 219.714844 49.117188 202.25 56.015625 188.050781 69.351562 C 173.882812 82.683594 165.867188 99.566406 164 120 C 164.101562 120 164.199219 120 164.300781 120 L 168 120 C 169.832031 100.734375 177.464844 84.800781 190.898438 72.199219 C 204.332031 59.601562 220.851562 53.066406 240.449219 52.601562 C 260.050781 53.066406 276.566406 59.601562 290 72.199219 C 303.464844 84.765625 311.117188 100.683594 312.949219 119.949219 C 314.351562 119.882812 315.667969 119.765625 316.898438 119.601562 C 314.964844 99.300781 306.917969 82.515625 292.75 69.25 C 278.582031 55.984375 261.148438 49.117188 240.449219 48.648438 "/>
    <path style="stroke:none;fill-rule:evenodd;fill:rgb(0.392157%,0.392157%,0.392157%);fill-opacity:1" d="M 240.5 52.648438 C 220.898438 53.117188 204.367188 59.648438 190.898438 72.25 C 177.464844 84.851562 169.832031 100.765625 168 120 L 170.5 120 C 172.101562 102.734375 178.648438 88.199219 190.148438 76.398438 C 190.25 76.332031 190.332031 76.25 190.398438 76.148438 C 191 75.515625 191.632812 74.898438 192.300781 74.300781 C 192.464844 74.167969 192.617188 74.015625 192.75 73.851562 C 193.351562 73.316406 193.964844 72.785156 194.601562 72.25 C 194.800781 72.050781 195.015625 71.851562 195.25 71.648438 C 195.816406 71.183594 196.398438 70.714844 197 70.25 C 197.265625 70.015625 197.550781 69.800781 197.851562 69.601562 C 198.417969 69.167969 198.984375 68.734375 199.550781 68.300781 C 199.882812 68.066406 200.199219 67.851562 200.5 67.648438 C 201.066406 67.25 201.632812 66.867188 202.199219 66.5 C 202.566406 66.265625 202.933594 66.035156 203.300781 65.800781 C 203.867188 65.464844 204.417969 65.132812 204.949219 64.800781 C 205.351562 64.566406 205.75 64.332031 206.148438 64.101562 C 206.714844 63.800781 207.265625 63.5 207.800781 63.199219 C 208.265625 62.964844 208.714844 62.734375 209.148438 62.5 C 209.683594 62.234375 210.214844 61.984375 210.75 61.75 C 211.214844 61.515625 211.699219 61.300781 212.199219 61.101562 C 212.699219 60.867188 213.234375 60.632812 213.800781 60.398438 C 214.300781 60.199219 214.800781 60 215.300781 59.800781 C 215.832031 59.601562 216.367188 59.398438 216.898438 59.199219 C 217.433594 59 217.964844 58.816406 218.5 58.648438 C 219.035156 58.484375 219.566406 58.316406 220.101562 58.148438 C 220.632812 57.984375 221.183594 57.816406 221.75 57.648438 C 222.285156 57.515625 222.816406 57.382812 223.351562 57.25 C 223.917969 57.117188 224.5 56.984375 225.101562 56.851562 C 225.632812 56.714844 226.148438 56.601562 226.648438 56.5 C 227.285156 56.367188 227.917969 56.25 228.550781 56.148438 C 229.050781 56.082031 229.550781 56 230.050781 55.898438 C 230.714844 55.800781 231.382812 55.714844 232.050781 55.648438 C 232.515625 55.582031 232.984375 55.535156 233.449219 55.5 C 234.25 55.398438 235.035156 55.332031 235.800781 55.300781 C 236.167969 55.265625 236.550781 55.234375 236.949219 55.199219 C 238.117188 55.167969 239.300781 55.148438 240.5 55.148438 C 241.667969 55.148438 242.832031 55.167969 244 55.199219 C 244.398438 55.234375 244.800781 55.265625 245.199219 55.300781 C 245.964844 55.367188 246.734375 55.433594 247.5 55.5 C 247.964844 55.535156 248.433594 55.582031 248.898438 55.648438 C 249.601562 55.714844 250.285156 55.800781 250.949219 55.898438 C 251.449219 56 251.949219 56.082031 252.449219 56.148438 C 253.082031 56.25 253.699219 56.367188 254.300781 56.5 C 254.832031 56.601562 255.351562 56.714844 255.851562 56.851562 C 256.449219 56.984375 257.050781 57.117188 257.648438 57.25 C 258.183594 57.382812 258.699219 57.515625 259.199219 57.648438 C 259.765625 57.816406 260.332031 57.984375 260.898438 58.148438 C 261.433594 58.316406 261.964844 58.484375 262.5 58.648438 C 263.035156 58.851562 263.566406 59.035156 264.101562 59.199219 C 264.632812 59.398438 265.167969 59.601562 265.699219 59.800781 C 266.199219 60 266.699219 60.199219 267.199219 60.398438 C 267.734375 60.632812 268.265625 60.867188 268.800781 61.101562 C 269.265625 61.300781 269.734375 61.515625 270.199219 61.75 C 270.765625 61.984375 271.316406 62.234375 271.851562 62.5 C 272.285156 62.734375 272.714844 62.964844 273.148438 63.199219 C 273.714844 63.5 274.265625 63.800781 274.800781 64.101562 C 275.199219 64.332031 275.601562 64.566406 276 64.800781 C 276.566406 65.101562 277.132812 65.433594 277.699219 65.800781 C 278.035156 66.035156 278.382812 66.265625 278.75 66.5 C 279.351562 66.867188 279.917969 67.25 280.449219 67.648438 C 280.785156 67.851562 281.101562 68.066406 281.398438 68.300781 C 282 68.734375 282.582031 69.167969 283.148438 69.601562 C 283.417969 69.800781 283.683594 70.015625 283.949219 70.25 C 284.550781 70.714844 285.148438 71.183594 285.75 71.648438 C 285.949219 71.851562 286.167969 72.050781 286.398438 72.25 C 287 72.785156 287.601562 73.316406 288.199219 73.851562 C 288.367188 74.015625 288.535156 74.167969 288.699219 74.300781 C 289.332031 74.898438 289.964844 75.515625 290.601562 76.148438 C 290.667969 76.25 290.734375 76.332031 290.800781 76.398438 C 302.300781 88.199219 308.867188 102.734375 310.5 120 C 310.5 120 310.5 120 310.5 120 L 311.351562 120 C 311.917969 120 312.464844 119.984375 313 119.949219 C 311.132812 100.714844 303.484375 84.800781 290.050781 72.199219 C 276.617188 59.632812 260.101562 53.117188 240.5 52.648438 "/>
    <path style="stroke:none;fill-rule:evenodd;fill:rgb(0.392157%,0.392157%,0.392157%);fill-opacity:1" d="M 284.851562 107.101562 C 284.617188 106.566406 284.382812 106.015625 284.148438 105.449219 C 284.082031 105.316406 284.015625 105.183594 283.949219 105.050781 C 283.714844 104.550781 283.464844 104.035156 283.199219 103.5 C 283.132812 103.367188 283.050781 103.214844 282.949219 103.050781 C 282.714844 102.582031 282.464844 102.117188 282.199219 101.648438 C 282.066406 101.449219 281.964844 101.265625 281.898438 101.101562 C 281.601562 100.667969 281.316406 100.214844 281.050781 99.75 C 280.949219 99.582031 280.832031 99.417969 280.699219 99.25 C 280.433594 98.785156 280.148438 98.351562 279.851562 97.949219 C 279.714844 97.75 279.582031 97.566406 279.449219 97.398438 C 279.148438 96.964844 278.851562 96.550781 278.550781 96.148438 C 278.417969 95.984375 278.265625 95.816406 278.101562 95.648438 C 277.800781 95.25 277.484375 94.851562 277.148438 94.449219 C 277.015625 94.285156 276.867188 94.117188 276.699219 93.949219 C 276.398438 93.550781 276.066406 93.167969 275.699219 92.800781 C 275.566406 92.632812 275.417969 92.464844 275.25 92.300781 C 274.917969 91.933594 274.566406 91.566406 274.199219 91.199219 C 274.035156 91.066406 273.882812 90.933594 273.75 90.800781 C 273.351562 90.433594 272.964844 90.066406 272.601562 89.699219 C 272.5 89.632812 272.417969 89.566406 272.351562 89.5 C 271.015625 88.300781 269.601562 87.183594 268.101562 86.148438 C 267.898438 85.984375 267.683594 85.816406 267.449219 85.648438 C 267.117188 85.417969 266.765625 85.199219 266.398438 85 C 266.132812 84.800781 265.851562 84.617188 265.550781 84.449219 C 265.214844 84.25 264.882812 84.050781 264.550781 83.851562 C 264.25 83.683594 263.933594 83.5 263.601562 83.300781 C 263.265625 83.132812 262.933594 82.964844 262.601562 82.800781 C 262.265625 82.601562 261.933594 82.417969 261.601562 82.25 C 261.265625 82.117188 260.933594 81.964844 260.601562 81.800781 C 260.265625 81.632812 259.917969 81.464844 259.550781 81.300781 C 259.214844 81.167969 258.882812 81.035156 258.550781 80.898438 C 258.183594 80.734375 257.816406 80.582031 257.449219 80.449219 C 257.117188 80.316406 256.785156 80.199219 256.449219 80.101562 C 256.050781 79.964844 255.667969 79.832031 255.300781 79.699219 C 254.964844 79.601562 254.632812 79.5 254.300781 79.398438 C 253.898438 79.265625 253.5 79.148438 253.101562 79.050781 C 252.765625 78.949219 252.433594 78.867188 252.101562 78.800781 C 251.667969 78.667969 251.25 78.566406 250.851562 78.5 C 250.515625 78.398438 250.183594 78.316406 249.851562 78.25 C 249.417969 78.183594 248.984375 78.117188 248.550781 78.050781 C 248.214844 77.984375 247.882812 77.917969 247.550781 77.851562 C 247.082031 77.816406 246.617188 77.765625 246.148438 77.699219 C 245.851562 77.667969 245.535156 77.632812 245.199219 77.601562 C 244.699219 77.535156 244.183594 77.484375 243.648438 77.449219 C 243.382812 77.449219 243.117188 77.433594 242.851562 77.398438 C 242.082031 77.367188 241.300781 77.351562 240.5 77.351562 C 239.699219 77.351562 238.898438 77.367188 238.101562 77.398438 C 237.832031 77.433594 237.566406 77.449219 237.300781 77.449219 C 236.800781 77.484375 236.285156 77.535156 235.75 77.601562 C 235.417969 77.632812 235.101562 77.667969 234.800781 77.699219 C 234.332031 77.734375 233.867188 77.785156 233.398438 77.851562 C 233.101562 77.917969 232.785156 77.984375 232.449219 78.050781 C 231.984375 78.117188 231.550781 78.183594 231.148438 78.25 C 230.785156 78.351562 230.449219 78.433594 230.148438 78.5 C 229.714844 78.566406 229.300781 78.667969 228.898438 78.800781 C 228.535156 78.867188 228.183594 78.949219 227.851562 79.050781 C 227.484375 79.148438 227.101562 79.265625 226.699219 79.398438 C 226.332031 79.5 225.984375 79.601562 225.648438 79.699219 C 225.285156 79.832031 224.898438 79.964844 224.5 80.101562 C 224.167969 80.199219 223.832031 80.316406 223.5 80.449219 C 223.132812 80.582031 222.765625 80.734375 222.398438 80.898438 C 222.066406 81.035156 221.734375 81.167969 221.398438 81.300781 C 221.035156 81.464844 220.683594 81.632812 220.351562 81.800781 C 220.015625 81.933594 219.683594 82.082031 219.351562 82.25 C 219.015625 82.417969 218.683594 82.601562 218.351562 82.800781 C 218.015625 82.964844 217.683594 83.132812 217.351562 83.300781 C 217.050781 83.5 216.734375 83.683594 216.398438 83.851562 C 216.066406 84.050781 215.734375 84.25 215.398438 84.449219 C 215.132812 84.617188 214.851562 84.800781 214.550781 85 C 214.214844 85.199219 213.867188 85.417969 213.5 85.648438 C 213.300781 85.816406 213.082031 85.984375 212.851562 86.148438 C 211.382812 87.183594 209.964844 88.300781 208.601562 89.5 C 208.535156 89.566406 208.464844 89.632812 208.398438 89.699219 C 208 90.066406 207.601562 90.433594 207.199219 90.800781 C 207.066406 90.933594 206.933594 91.066406 206.800781 91.199219 C 206.433594 91.566406 206.066406 91.949219 205.699219 92.351562 C 205.535156 92.484375 205.382812 92.632812 205.25 92.800781 C 204.917969 93.167969 204.582031 93.550781 204.25 93.949219 C 204.082031 94.117188 203.933594 94.285156 203.800781 94.449219 C 203.464844 94.851562 203.148438 95.25 202.851562 95.648438 C 202.683594 95.816406 202.535156 95.984375 202.398438 96.148438 C 202.101562 96.582031 201.800781 97 201.5 97.398438 C 201.367188 97.566406 201.234375 97.75 201.101562 97.949219 C 200.832031 98.351562 200.550781 98.785156 200.25 99.25 C 200.148438 99.417969 200.035156 99.582031 199.898438 99.75 C 199.632812 100.214844 199.367188 100.667969 199.101562 101.101562 C 199 101.300781 198.898438 101.464844 198.800781 101.601562 C 198.535156 102.101562 198.265625 102.582031 198 103.050781 C 197.933594 103.214844 197.851562 103.367188 197.75 103.5 C 197.484375 104.035156 197.234375 104.550781 197 105.050781 C 196.933594 105.183594 196.882812 105.316406 196.851562 105.449219 C 196.582031 105.984375 196.332031 106.550781 196.101562 107.148438 C 196.066406 107.183594 196.035156 107.234375 196 107.300781 C 194.367188 111.300781 193.300781 115.535156 192.800781 120 L 195.300781 120 C 196.867188 108.433594 201.816406 98.917969 210.148438 91.449219 C 218.449219 83.949219 228.566406 80.082031 240.5 79.851562 C 252.398438 80.117188 262.515625 83.984375 270.851562 91.449219 C 279.148438 98.917969 284.082031 108.433594 285.648438 120 L 288.148438 120 C 287.648438 115.566406 286.582031 111.351562 284.949219 107.351562 C 284.917969 107.25 284.882812 107.167969 284.851562 107.101562 "/>
    <path style="stroke:none;fill-rule:evenodd;fill:rgb(100.000000%,100.000000%,100.000000%);fill-opacity:1" d="M 240.5 79.851562 C 228.566406 80.117188 218.449219 83.984375 210.148438 91.449219 C 201.816406 98.917969 196.867188 108.433594 195.300781 120 L 215.75 120 C 217.285156 114.398438 220.265625 109.832031 224.699219 106.300781 C 229.167969 102.765625 234.433594 100.933594 240.5 100.800781 C 246.535156 100.933594 251.785156 102.765625 256.25 106.300781 C 260.714844 109.832031 263.699219 114.398438 265.199219 120 L 285.648438 120 C 284.082031 108.433594 279.132812 98.917969 270.800781 91.449219 C 262.5 83.984375 252.398438 80.117188 240.5 79.851562 "/>
    <path style="stroke:none;fill-rule:evenodd;fill:rgb(0.392157%,0.392157%,0.392157%);fill-opacity:1" d="M 240.5 100.800781 C 234.433594 100.898438 229.167969 102.714844 224.699219 106.25 C 220.265625 109.785156 217.285156 114.367188 215.75 120 L 218.300781 120 C 218.332031 120 218.332031 120 218.300781 120 C 218.832031 118.199219 219.566406 116.5 220.5 114.898438 C 220.5 114.867188 220.5 114.851562 220.5 114.851562 C 221.398438 113.285156 222.484375 111.832031 223.75 110.5 C 223.75 110.464844 223.765625 110.449219 223.800781 110.449219 C 224.632812 109.582031 225.515625 108.785156 226.449219 108.050781 C 226.449219 108.050781 226.464844 108.035156 226.5 108 C 226.964844 107.667969 227.433594 107.332031 227.898438 107 C 227.964844 106.964844 228.035156 106.933594 228.101562 106.898438 C 229.035156 106.300781 230.035156 105.765625 231.101562 105.300781 C 231.167969 105.265625 231.234375 105.234375 231.300781 105.199219 C 231.800781 104.964844 232.316406 104.765625 232.851562 104.601562 C 232.949219 104.566406 233.035156 104.535156 233.101562 104.5 C 233.667969 104.300781 234.214844 104.132812 234.75 104 C 234.75 104 234.765625 104 234.800781 104 C 235.332031 103.867188 235.882812 103.75 236.449219 103.648438 C 236.550781 103.617188 236.648438 103.601562 236.75 103.601562 C 237.285156 103.5 237.832031 103.433594 238.398438 103.398438 C 238.5 103.367188 238.601562 103.351562 238.699219 103.351562 C 239.300781 103.316406 239.898438 103.300781 240.5 103.300781 C 241.066406 103.300781 241.648438 103.316406 242.25 103.351562 C 242.351562 103.351562 242.449219 103.367188 242.550781 103.398438 C 243.117188 103.433594 243.683594 103.5 244.25 103.601562 C 244.316406 103.601562 244.417969 103.617188 244.550781 103.648438 C 245.082031 103.75 245.617188 103.867188 246.148438 104 C 246.183594 104 246.199219 104 246.199219 104 C 246.765625 104.132812 247.316406 104.300781 247.851562 104.5 C 247.949219 104.535156 248.035156 104.566406 248.101562 104.601562 C 248.632812 104.765625 249.148438 104.964844 249.648438 105.199219 C 249.714844 105.234375 249.785156 105.265625 249.851562 105.300781 C 250.917969 105.765625 251.933594 106.300781 252.898438 106.898438 C 252.933594 106.933594 252.984375 106.964844 253.050781 107 C 253.515625 107.332031 253.984375 107.667969 254.449219 108 C 254.484375 108.035156 254.5 108.050781 254.5 108.050781 C 255.464844 108.785156 256.351562 109.582031 257.148438 110.449219 L 257.25 110.5 C 258.484375 111.832031 259.550781 113.285156 260.449219 114.851562 C 260.484375 114.882812 260.5 114.898438 260.5 114.898438 C 261.398438 116.5 262.117188 118.199219 262.648438 120 C 262.648438 120 262.648438 120 262.648438 120 L 265.199219 120 C 263.699219 114.367188 260.714844 109.785156 256.25 106.25 C 251.785156 102.714844 246.535156 100.898438 240.5 100.800781 "/>
    <path style="stroke:none;fill-rule:evenodd;fill:rgb(16.078431%,37.647059%,66.274510%);fill-opacity:1" d="M 153.800781 119.199219 C 153.800781 119.199219 153.800781 119.199219 153.800781 119.199219 C 156.433594 119.566406 159.015625 119.800781 161.550781 119.898438 L 161.5 119.898438 C 159 119.800781 156.433594 119.566406 153.800781 119.199219 "/>
    <path style="stroke:none;fill-rule:evenodd;fill:rgb(16.078431%,37.647059%,66.274510%);fill-opacity:1" d="M 240.449219 31.148438 C 228.851562 31.214844 217.898438 33.183594 207.601562 37.050781 L 194.550781 28.949219 L 187.25 33.148438 L 179.949219 37.351562 L 180.398438 52.75 C 175.867188 56.550781 171.699219 60.734375 167.898438 65.300781 L 152.5 64.851562 L 148.300781 72.101562 L 144.101562 79.398438 L 152.148438 92.5 C 150.117188 98 148.601562 103.714844 147.601562 109.648438 L 140.351562 113.5 C 140.351562 113.535156 140.351562 113.550781 140.351562 113.550781 C 140.484375 113.683594 140.601562 113.816406 140.699219 113.949219 C 140.699219 113.949219 140.699219 113.949219 140.699219 113.949219 C 140.867188 114.214844 141 114.433594 141.101562 114.601562 C 141.132812 114.601562 141.148438 114.617188 141.148438 114.648438 C 141.214844 114.714844 141.25 114.765625 141.25 114.800781 C 142.214844 115.964844 144 116.933594 146.601562 117.699219 C 146.601562 117.699219 146.617188 117.699219 146.648438 117.699219 C 147.117188 117.867188 147.617188 118.015625 148.148438 118.148438 C 148.214844 118.148438 148.265625 118.148438 148.300781 118.148438 C 148.832031 118.285156 149.367188 118.417969 149.898438 118.550781 C 149.964844 118.550781 150.035156 118.550781 150.101562 118.550781 C 150.667969 118.683594 151.234375 118.800781 151.800781 118.898438 C 151.867188 118.898438 151.917969 118.898438 151.949219 118.898438 C 152.550781 119 153.148438 119.101562 153.75 119.199219 C 153.75 119.199219 153.75 119.199219 153.75 119.199219 C 153.785156 119.199219 153.800781 119.199219 153.800781 119.199219 C 153.765625 119.199219 153.765625 119.199219 153.800781 119.199219 C 156.433594 119.566406 159 119.800781 161.5 119.898438 C 161.5 119.898438 161.5 119.898438 161.5 119.898438 C 161.5 119.898438 161.5 119.898438 161.5 119.898438 C 161.699219 117.167969 162.035156 114.449219 162.5 111.75 C 163.332031 107.050781 164.550781 102.5 166.148438 98.101562 C 169.214844 89.898438 173.449219 82.449219 178.851562 75.75 C 178.882812 75.683594 178.917969 75.632812 178.949219 75.601562 C 179.214844 75.265625 179.484375 74.949219 179.75 74.648438 C 180.183594 74.148438 180.601562 73.648438 181 73.148438 C 181.132812 73.015625 181.25 72.882812 181.351562 72.75 C 182.015625 72.015625 182.683594 71.300781 183.351562 70.601562 C 183.550781 70.398438 183.734375 70.199219 183.898438 70 C 184.566406 69.367188 185.214844 68.734375 185.851562 68.101562 C 186.117188 67.867188 186.367188 67.632812 186.601562 67.398438 C 187.234375 66.832031 187.867188 66.265625 188.5 65.699219 C 188.800781 65.433594 189.101562 65.167969 189.398438 64.898438 C 189.535156 64.800781 189.648438 64.699219 189.75 64.601562 C 190.25 64.199219 190.765625 63.785156 191.300781 63.351562 C 191.632812 63.082031 191.964844 62.816406 192.300781 62.550781 C 192.933594 62.082031 193.566406 61.617188 194.199219 61.148438 C 194.566406 60.882812 194.949219 60.617188 195.351562 60.351562 C 195.949219 59.917969 196.566406 59.5 197.199219 59.101562 C 197.632812 58.800781 198.066406 58.515625 198.5 58.25 C 199.101562 57.882812 199.714844 57.515625 200.351562 57.148438 C 200.816406 56.882812 201.285156 56.617188 201.75 56.351562 C 202.351562 55.984375 202.949219 55.648438 203.550781 55.351562 C 204.050781 55.082031 204.550781 54.816406 205.050781 54.550781 C 205.683594 54.25 206.300781 53.949219 206.898438 53.648438 C 207.433594 53.417969 207.964844 53.183594 208.5 52.949219 C 209.101562 52.683594 209.699219 52.417969 210.300781 52.148438 C 210.898438 51.917969 211.484375 51.699219 212.050781 51.5 C 212.417969 51.332031 212.800781 51.183594 213.199219 51.050781 C 213.433594 50.949219 213.648438 50.867188 213.851562 50.800781 C 214.449219 50.601562 215.050781 50.398438 215.648438 50.199219 C 216.25 50 216.851562 49.800781 217.449219 49.601562 C 218.082031 49.398438 218.714844 49.214844 219.351562 49.050781 C 219.917969 48.882812 220.5 48.734375 221.101562 48.601562 C 221.765625 48.433594 222.433594 48.265625 223.101562 48.101562 C 223.699219 47.964844 224.285156 47.851562 224.851562 47.75 C 225.550781 47.582031 226.265625 47.449219 227 47.351562 C 227.535156 47.25 228.082031 47.148438 228.648438 47.050781 C 229.417969 46.949219 230.183594 46.851562 230.949219 46.75 C 231.484375 46.683594 232.015625 46.617188 232.550781 46.550781 C 233.417969 46.484375 234.285156 46.433594 235.148438 46.398438 C 235.582031 46.332031 236.035156 46.300781 236.5 46.300781 C 237.800781 46.199219 239.117188 46.167969 240.449219 46.199219 C 241.785156 46.167969 243.117188 46.199219 244.449219 46.300781 C 244.882812 46.300781 245.316406 46.316406 245.75 46.351562 C 246.617188 46.417969 247.484375 46.484375 248.351562 46.550781 C 248.882812 46.617188 249.417969 46.683594 249.949219 46.75 C 250.714844 46.851562 251.464844 46.949219 252.199219 47.050781 C 252.765625 47.148438 253.332031 47.25 253.898438 47.351562 C 254.601562 47.449219 255.300781 47.566406 256 47.699219 C 256.601562 47.832031 257.183594 47.964844 257.75 48.101562 C 258.417969 48.234375 259.082031 48.382812 259.75 48.550781 C 260.351562 48.714844 260.933594 48.882812 261.5 49.050781 C 262.167969 49.214844 262.800781 49.398438 263.398438 49.601562 C 264 49.765625 264.601562 49.949219 265.199219 50.148438 C 265.800781 50.351562 266.398438 50.550781 267 50.75 C 267.601562 50.984375 268.199219 51.214844 268.800781 51.449219 C 269.367188 51.648438 269.933594 51.867188 270.5 52.101562 C 271.101562 52.367188 271.699219 52.632812 272.300781 52.898438 C 272.867188 53.132812 273.398438 53.367188 273.898438 53.601562 C 274.535156 53.898438 275.148438 54.199219 275.75 54.5 C 276.25 54.765625 276.75 55.015625 277.25 55.25 C 277.851562 55.582031 278.464844 55.933594 279.101562 56.300781 C 279.535156 56.535156 279.984375 56.785156 280.449219 57.050781 C 281.082031 57.417969 281.699219 57.800781 282.300781 58.199219 C 282.734375 58.464844 283.148438 58.734375 283.550781 59 C 284.183594 59.398438 284.816406 59.816406 285.449219 60.25 C 285.816406 60.515625 286.183594 60.785156 286.550781 61.050781 C 287.183594 61.515625 287.832031 61.984375 288.5 62.449219 C 288.800781 62.714844 289.101562 62.964844 289.398438 63.199219 C 290.066406 63.734375 290.734375 64.265625 291.398438 64.800781 C 291.632812 65 291.867188 65.214844 292.101562 65.449219 C 292.800781 66.050781 293.5 66.667969 294.199219 67.300781 C 294.367188 67.433594 294.515625 67.582031 294.648438 67.75 C 295.417969 68.449219 296.148438 69.167969 296.851562 69.898438 C 296.917969 69.933594 296.964844 69.984375 297 70.050781 C 310.035156 83.351562 317.484375 99.714844 319.351562 119.148438 C 319.351562 119.148438 319.351562 119.148438 319.351562 119.148438 C 320.550781 118.917969 321.648438 118.632812 322.648438 118.300781 C 324.984375 117.535156 326.800781 116.765625 328.101562 116 C 328.132812 116 328.148438 115.984375 328.148438 115.949219 C 328.351562 115.882812 328.515625 115.800781 328.648438 115.699219 C 328.683594 115.699219 328.714844 115.683594 328.75 115.648438 C 328.984375 115.515625 329.183594 115.382812 329.351562 115.25 C 329.417969 115.214844 329.484375 115.183594 329.550781 115.148438 C 329.617188 115.082031 329.683594 115.035156 329.75 115 C 329.816406 114.964844 329.882812 114.917969 329.949219 114.851562 C 330.015625 114.816406 330.066406 114.800781 330.101562 114.800781 C 330.199219 114.699219 330.285156 114.632812 330.351562 114.601562 C 330.648438 114.167969 330.964844 113.734375 331.300781 113.300781 C 331.433594 113.132812 331.566406 112.984375 331.699219 112.851562 C 331.867188 112.617188 332.050781 112.398438 332.25 112.199219 C 332.648438 111.734375 333.082031 111.285156 333.550781 110.851562 C 333.550781 110.851562 333.550781 110.851562 333.550781 110.851562 C 329.550781 87.785156 319.050781 68.851562 302.050781 54.050781 C 285.015625 39.285156 264.484375 31.648438 240.449219 31.148438 "/>
    <path style="stroke:none;fill-rule:evenodd;fill:rgb(16.078431%,37.647059%,66.274510%);fill-opacity:1" d="M 290.800781 76.351562 C 290.699219 76.285156 290.617188 76.214844 290.550781 76.148438 C 289.917969 75.515625 289.285156 74.882812 288.648438 74.25 C 288.484375 74.117188 288.332031 73.984375 288.199219 73.851562 C 287.601562 73.285156 286.984375 72.734375 286.351562 72.199219 C 286.148438 72 285.933594 71.816406 285.699219 71.648438 C 285.101562 71.148438 284.515625 70.667969 283.949219 70.199219 C 283.648438 69.964844 283.367188 69.75 283.101562 69.550781 C 282.535156 69.117188 281.964844 68.699219 281.398438 68.300781 C 281.066406 68.066406 280.734375 67.832031 280.398438 67.601562 C 279.867188 67.199219 279.316406 66.816406 278.75 66.449219 C 278.382812 66.214844 278.015625 65.984375 277.648438 65.75 C 277.082031 65.417969 276.535156 65.082031 276 64.75 C 275.566406 64.515625 275.148438 64.285156 274.75 64.050781 C 274.214844 63.75 273.667969 63.449219 273.101562 63.148438 C 272.667969 62.917969 272.234375 62.699219 271.800781 62.5 C 271.265625 62.234375 270.734375 61.964844 270.199219 61.699219 C 269.699219 61.464844 269.214844 61.25 268.75 61.050781 C 268.214844 60.816406 267.683594 60.582031 267.148438 60.351562 C 266.648438 60.148438 266.148438 59.949219 265.648438 59.75 C 265.117188 59.550781 264.582031 59.351562 264.050781 59.148438 C 263.515625 58.984375 262.984375 58.816406 262.449219 58.648438 C 261.917969 58.449219 261.382812 58.265625 260.851562 58.101562 C 260.285156 57.964844 259.714844 57.816406 259.148438 57.648438 C 258.648438 57.484375 258.132812 57.332031 257.601562 57.199219 C 257 57.066406 256.417969 56.933594 255.851562 56.800781 C 255.316406 56.699219 254.800781 56.582031 254.300781 56.449219 C 253.667969 56.351562 253.035156 56.25 252.398438 56.148438 C 251.898438 56.050781 251.398438 55.964844 250.898438 55.898438 C 250.234375 55.800781 249.550781 55.699219 248.851562 55.601562 C 248.417969 55.566406 247.949219 55.515625 247.449219 55.449219 C 246.714844 55.382812 245.949219 55.316406 245.148438 55.25 C 244.785156 55.25 244.398438 55.234375 244 55.199219 C 242.832031 55.132812 241.648438 55.101562 240.449219 55.101562 C 239.285156 55.101562 238.101562 55.132812 236.898438 55.199219 C 236.535156 55.199219 236.148438 55.214844 235.75 55.25 C 234.984375 55.316406 234.214844 55.382812 233.449219 55.449219 C 232.984375 55.515625 232.515625 55.566406 232.050781 55.601562 C 231.351562 55.699219 230.667969 55.800781 230 55.898438 C 229.5 55.964844 229 56.050781 228.5 56.148438 C 227.867188 56.25 227.234375 56.351562 226.601562 56.449219 C 226.101562 56.582031 225.601562 56.699219 225.101562 56.800781 C 224.5 56.933594 223.898438 57.066406 223.300781 57.199219 C 222.765625 57.367188 222.25 57.515625 221.75 57.648438 C 221.183594 57.785156 220.617188 57.933594 220.050781 58.101562 C 219.515625 58.265625 218.984375 58.449219 218.449219 58.648438 C 217.917969 58.816406 217.382812 58.984375 216.851562 59.148438 C 216.316406 59.351562 215.785156 59.550781 215.25 59.75 C 214.75 59.949219 214.25 60.148438 213.75 60.351562 C 213.214844 60.582031 212.683594 60.816406 212.148438 61.050781 C 211.683594 61.25 211.214844 61.464844 210.75 61.699219 C 210.183594 61.964844 209.632812 62.234375 209.101562 62.5 C 208.667969 62.699219 208.234375 62.917969 207.800781 63.148438 C 207.234375 63.449219 206.683594 63.75 206.148438 64.050781 C 205.75 64.285156 205.351562 64.515625 204.949219 64.75 C 204.382812 65.082031 203.816406 65.417969 203.25 65.75 C 202.882812 65.984375 202.515625 66.214844 202.148438 66.449219 C 201.582031 66.816406 201.035156 67.199219 200.5 67.601562 C 200.167969 67.832031 199.832031 68.066406 199.5 68.300781 C 198.933594 68.699219 198.367188 69.117188 197.800781 69.550781 C 197.535156 69.75 197.25 69.964844 196.949219 70.199219 C 196.382812 70.667969 195.800781 71.148438 195.199219 71.648438 C 195 71.816406 194.785156 72 194.550781 72.199219 C 193.917969 72.734375 193.316406 73.285156 192.75 73.851562 C 192.582031 73.984375 192.417969 74.117188 192.25 74.25 C 191.617188 74.882812 190.984375 75.515625 190.351562 76.148438 C 190.285156 76.214844 190.214844 76.285156 190.148438 76.351562 C 178.648438 88.183594 172.082031 102.734375 170.449219 120 L 192.75 120 C 193.285156 115.535156 194.367188 111.300781 196 107.300781 C 196.035156 107.234375 196.050781 107.167969 196.050781 107.101562 C 196.285156 106.535156 196.535156 105.964844 196.800781 105.398438 C 196.867188 105.300781 196.917969 105.183594 196.949219 105.050781 C 197.214844 104.550781 197.484375 104.035156 197.75 103.5 C 197.816406 103.367188 197.882812 103.214844 197.949219 103.050781 C 198.214844 102.582031 198.484375 102.101562 198.75 101.601562 C 198.851562 101.433594 198.949219 101.265625 199.050781 101.101562 C 199.316406 100.632812 199.601562 100.183594 199.898438 99.75 C 200 99.582031 200.101562 99.398438 200.199219 99.199219 C 200.5 98.765625 200.800781 98.332031 201.101562 97.898438 C 201.234375 97.734375 201.351562 97.566406 201.449219 97.398438 C 201.785156 96.964844 202.101562 96.550781 202.398438 96.148438 C 202.535156 95.984375 202.667969 95.816406 202.800781 95.648438 C 203.132812 95.214844 203.449219 94.816406 203.75 94.449219 C 203.917969 94.285156 204.066406 94.117188 204.199219 93.949219 C 204.535156 93.550781 204.867188 93.167969 205.199219 92.800781 C 205.367188 92.632812 205.515625 92.464844 205.648438 92.300781 C 206.015625 91.933594 206.382812 91.566406 206.75 91.199219 C 206.882812 91.066406 207.015625 90.933594 207.148438 90.800781 C 207.550781 90.433594 207.949219 90.066406 208.351562 89.699219 C 208.417969 89.632812 208.484375 89.566406 208.550781 89.5 C 209.917969 88.300781 211.351562 87.167969 212.851562 86.101562 C 213.050781 85.964844 213.265625 85.816406 213.5 85.648438 C 213.832031 85.417969 214.183594 85.183594 214.550781 84.949219 C 214.816406 84.785156 215.082031 84.617188 215.351562 84.449219 C 215.714844 84.25 216.066406 84.050781 216.398438 83.851562 C 216.699219 83.648438 217 83.464844 217.300781 83.300781 C 217.632812 83.132812 217.964844 82.949219 218.300781 82.75 C 218.632812 82.582031 218.964844 82.417969 219.300781 82.25 C 219.632812 82.082031 219.964844 81.933594 220.300781 81.800781 C 220.667969 81.632812 221.015625 81.464844 221.351562 81.300781 C 221.714844 81.167969 222.066406 81.035156 222.398438 80.898438 C 222.734375 80.734375 223.101562 80.582031 223.5 80.449219 C 223.832031 80.316406 224.167969 80.199219 224.5 80.101562 C 224.867188 79.933594 225.25 79.800781 225.648438 79.699219 C 225.984375 79.566406 226.316406 79.449219 226.648438 79.351562 C 227.050781 79.25 227.449219 79.148438 227.851562 79.050781 C 228.183594 78.949219 228.515625 78.851562 228.851562 78.75 C 229.285156 78.648438 229.699219 78.566406 230.101562 78.5 C 230.433594 78.398438 230.765625 78.316406 231.101562 78.25 C 231.535156 78.183594 231.964844 78.117188 232.398438 78.050781 C 232.734375 77.984375 233.066406 77.917969 233.398438 77.851562 C 233.867188 77.785156 234.332031 77.734375 234.800781 77.699219 C 235.101562 77.632812 235.398438 77.601562 235.699219 77.601562 C 236.234375 77.535156 236.765625 77.484375 237.300781 77.449219 C 237.535156 77.417969 237.785156 77.398438 238.050781 77.398438 C 238.851562 77.367188 239.648438 77.351562 240.449219 77.351562 C 241.25 77.351562 242.050781 77.367188 242.851562 77.398438 C 243.117188 77.398438 243.367188 77.417969 243.601562 77.449219 C 244.132812 77.484375 244.667969 77.535156 245.199219 77.601562 C 245.5 77.601562 245.816406 77.632812 246.148438 77.699219 C 246.582031 77.734375 247.035156 77.785156 247.5 77.851562 C 247.832031 77.917969 248.167969 77.984375 248.5 78.050781 C 248.933594 78.117188 249.367188 78.183594 249.800781 78.25 C 250.132812 78.316406 250.464844 78.398438 250.800781 78.5 C 251.234375 78.566406 251.648438 78.648438 252.050781 78.75 C 252.382812 78.851562 252.714844 78.949219 253.050781 79.050781 C 253.449219 79.148438 253.851562 79.25 254.25 79.351562 C 254.582031 79.484375 254.917969 79.601562 255.25 79.699219 C 255.648438 79.832031 256.035156 79.964844 256.398438 80.101562 C 256.765625 80.199219 257.117188 80.316406 257.449219 80.449219 C 257.816406 80.582031 258.183594 80.734375 258.550781 80.898438 C 258.882812 81.035156 259.214844 81.167969 259.550781 81.300781 C 259.882812 81.464844 260.234375 81.632812 260.601562 81.800781 C 260.933594 81.933594 261.265625 82.082031 261.601562 82.25 C 261.933594 82.417969 262.265625 82.582031 262.601562 82.75 C 262.933594 82.949219 263.265625 83.132812 263.601562 83.300781 C 263.898438 83.464844 264.199219 83.648438 264.5 83.851562 C 264.867188 84.050781 265.214844 84.25 265.550781 84.449219 C 265.816406 84.617188 266.101562 84.800781 266.398438 85 C 266.734375 85.199219 267.066406 85.417969 267.398438 85.648438 C 267.632812 85.816406 267.867188 85.984375 268.101562 86.148438 C 269.566406 87.183594 270.964844 88.300781 272.300781 89.5 C 272.398438 89.566406 272.484375 89.632812 272.550781 89.699219 C 272.949219 90.066406 273.332031 90.433594 273.699219 90.800781 C 273.867188 90.933594 274.015625 91.066406 274.148438 91.199219 C 274.515625 91.566406 274.882812 91.933594 275.25 92.300781 C 275.382812 92.464844 275.535156 92.632812 275.699219 92.800781 C 276.035156 93.167969 276.367188 93.535156 276.699219 93.898438 C 276.832031 94.101562 276.984375 94.285156 277.148438 94.449219 C 277.484375 94.816406 277.800781 95.199219 278.101562 95.601562 C 278.234375 95.800781 278.367188 95.984375 278.5 96.148438 C 278.832031 96.550781 279.148438 96.964844 279.449219 97.398438 C 279.550781 97.566406 279.667969 97.75 279.800781 97.949219 C 280.101562 98.351562 280.398438 98.765625 280.699219 99.199219 C 280.800781 99.398438 280.917969 99.582031 281.050781 99.75 C 281.316406 100.183594 281.582031 100.632812 281.851562 101.101562 C 281.949219 101.265625 282.050781 101.433594 282.148438 101.601562 C 282.417969 102.101562 282.683594 102.582031 282.949219 103.050781 C 283.015625 103.214844 283.082031 103.367188 283.148438 103.5 C 283.417969 104.035156 283.683594 104.550781 283.949219 105.050781 C 283.984375 105.183594 284.035156 105.316406 284.101562 105.449219 C 284.367188 105.984375 284.617188 106.535156 284.851562 107.101562 C 284.882812 107.167969 284.898438 107.234375 284.898438 107.300781 C 286.566406 111.300781 287.648438 115.535156 288.148438 120 L 310.449219 120 C 310.449219 119.964844 310.449219 119.949219 310.449219 119.949219 C 308.816406 102.714844 302.265625 88.183594 290.800781 76.351562 "/>
    <path style="stroke:none;fill-rule:evenodd;fill:rgb(10.980392%,26.274510%,49.411765%);fill-opacity:1" d="M 260.449219 114.898438 C 260.449219 114.898438 260.449219 114.898438 260.449219 114.898438 C 259.515625 113.300781 258.433594 111.832031 257.199219 110.5 L 257.148438 110.449219 C 256.316406 109.582031 255.433594 108.800781 254.5 108.101562 C 254.464844 108.066406 254.449219 108.035156 254.449219 108 C 253.984375 107.667969 253.515625 107.351562 253.050781 107.050781 C 252.984375 107.015625 252.917969 106.984375 252.851562 106.949219 C 251.882812 106.316406 250.882812 105.765625 249.851562 105.300781 C 249.785156 105.265625 249.714844 105.234375 249.648438 105.199219 C 249.117188 105 248.601562 104.800781 248.101562 104.601562 C 248 104.566406 247.898438 104.535156 247.800781 104.5 C 247.265625 104.332031 246.734375 104.167969 246.199219 104 C 246.167969 104 246.148438 104 246.148438 104 C 245.617188 103.867188 245.066406 103.75 244.5 103.648438 C 244.398438 103.648438 244.300781 103.632812 244.199219 103.601562 C 243.667969 103.535156 243.117188 103.464844 242.550781 103.398438 C 242.449219 103.398438 242.332031 103.382812 242.199219 103.351562 C 241.632812 103.316406 241.050781 103.300781 240.449219 103.300781 C 239.851562 103.300781 239.265625 103.316406 238.699219 103.351562 C 238.601562 103.382812 238.484375 103.398438 238.351562 103.398438 C 237.816406 103.433594 237.265625 103.5 236.699219 103.601562 C 236.601562 103.632812 236.5 103.648438 236.398438 103.648438 C 235.867188 103.75 235.316406 103.867188 234.75 104 C 234.75 104 234.75 104 234.75 104 C 234.183594 104.167969 233.632812 104.332031 233.101562 104.5 C 233 104.535156 232.898438 104.566406 232.800781 104.601562 C 232.300781 104.765625 231.800781 104.964844 231.300781 105.199219 C 231.234375 105.234375 231.167969 105.265625 231.101562 105.300781 C 230.035156 105.765625 229.015625 106.300781 228.050781 106.898438 C 227.984375 106.964844 227.933594 107.015625 227.898438 107.050781 C 227.398438 107.351562 226.933594 107.667969 226.5 108 C 226.464844 108.035156 226.433594 108.066406 226.398438 108.101562 C 225.464844 108.800781 224.601562 109.582031 223.800781 110.449219 C 223.765625 110.484375 223.734375 110.5 223.699219 110.5 C 222.464844 111.832031 221.382812 113.300781 220.449219 114.898438 C 220.449219 114.898438 220.449219 114.898438 220.449219 114.898438 C 219.550781 116.5 218.832031 118.199219 218.300781 120 C 218.300781 120 218.300781 120 218.300781 120 L 262.601562 120 C 262.601562 120 262.601562 120 262.601562 120 C 262.101562 118.199219 261.382812 116.5 260.449219 114.898438 "/>
    <path style="stroke:none;fill-rule:evenodd;fill:rgb(14.901961%,56.862745%,81.568627%);fill-opacity:1" d="M 336.851562 79.398438 L 332.648438 72.101562 L 328.449219 64.851562 L 313 65.300781 C 309.234375 60.734375 305.066406 56.566406 300.5 52.800781 L 300.949219 37.351562 L 293.699219 33.148438 L 286.398438 28.949219 L 273.300781 37.050781 C 267.800781 34.984375 262.082031 33.449219 256.148438 32.449219 L 248.898438 18.898438 L 232.050781 18.898438 L 224.75 32.449219 C 220.351562 33.214844 216.050781 34.265625 211.851562 35.601562 C 212.851562 40.566406 214.265625 45.382812 216.101562 50.050781 C 219.601562 48.917969 223.199219 48.015625 226.898438 47.351562 C 231.300781 46.582031 235.816406 46.199219 240.449219 46.199219 C 245.082031 46.199219 249.617188 46.582031 254.050781 47.351562 C 258.75 48.183594 263.300781 49.417969 267.699219 51.050781 C 276.367188 54.25 284.183594 58.765625 291.148438 64.601562 C 294.816406 67.667969 298.167969 71 301.199219 74.601562 C 307.035156 81.601562 311.566406 89.433594 314.800781 98.101562 C 315.234375 99.300781 315.632812 100.5 316 101.699219 C 320.964844 100.5 325.714844 98.882812 330.25 96.851562 C 329.785156 95.382812 329.285156 93.933594 328.75 92.5 L 336.851562 79.398438 "/>
    <path style="stroke:none;fill-rule:evenodd;fill:rgb(14.901961%,56.862745%,81.568627%);fill-opacity:1" d="M 240.449219 55.101562 C 233.25 55.132812 226.367188 56.167969 219.800781 58.199219 C 223.566406 65.433594 228.25 71.964844 233.851562 77.800781 C 236.015625 77.5 238.214844 77.351562 240.449219 77.351562 C 249.851562 77.449219 258.265625 79.851562 265.699219 84.550781 C 273.167969 89.214844 278.949219 95.464844 283.050781 103.300781 C 287.148438 103.898438 291.300781 104.199219 295.5 104.199219 C 299.464844 104.199219 303.367188 103.933594 307.199219 103.398438 C 302.332031 89.132812 293.949219 77.582031 282.050781 68.75 C 270.148438 59.917969 256.285156 55.367188 240.449219 55.101562 "/>
    <path style="stroke:none;fill-rule:evenodd;fill:rgb(100.000000%,100.000000%,100.000000%);fill-opacity:1" d="M 241.148438 37 C 260.617188 37.300781 277.714844 42.785156 292.449219 53.449219 C 307.214844 64.117188 317.800781 78.117188 324.199219 95.449219 C 325.265625 95.117188 326.316406 94.75 327.351562 94.351562 C 320.25 75.882812 308.933594 61.234375 293.398438 50.398438 C 277.867188 39.566406 260.132812 34.035156 240.199219 33.800781 C 232.066406 33.800781 224.101562 34.832031 216.300781 36.898438 C 216.601562 38.035156 216.917969 39.148438 217.25 40.25 C 224.882812 38.082031 232.851562 37 241.148438 37 "/>
    <path style="stroke:none;fill-rule:evenodd;fill:rgb(0.392157%,0.392157%,0.392157%);fill-opacity:1" d="M 387.648438 137.550781 C 386.617188 136.449219 385.285156 135.898438 383.648438 135.898438 C 382.714844 135.898438 381.683594 136.101562 380.550781 136.5 L 380.449219 136.5 C 378.816406 137.199219 376.398438 138.050781 373.199219 139.050781 C 370 140.050781 367.167969 140.601562 364.699219 140.699219 C 364.066406 140.667969 363.648438 140.617188 363.449219 140.550781 L 363.25 140.550781 L 363.050781 140.5 C 362.816406 140.601562 361.851562 140.25 360.148438 139.449219 C 358.449219 138.617188 356.867188 136.667969 355.398438 133.601562 C 355.132812 133.035156 354.949219 131.617188 354.851562 129.351562 C 354.785156 127.050781 355.683594 124.984375 357.550781 123.148438 L 377.300781 117.25 L 377.75 116.800781 C 378.484375 116.5 379.082031 114.964844 379.550781 112.199219 C 379.714844 110.765625 378.800781 109.015625 376.800781 106.949219 L 376.449219 106.648438 L 376 106.449219 C 375.535156 106.214844 373.199219 105.515625 369 104.351562 C 364.765625 103.183594 360.066406 102.515625 354.898438 102.351562 C 351.867188 102.351562 349.214844 102.734375 346.949219 103.5 C 345.984375 103.566406 343.765625 104.417969 340.300781 106.050781 C 336.800781 107.648438 333.484375 110.5 330.351562 114.601562 C 329.714844 115.234375 327.816406 116.25 324.648438 117.648438 C 321.449219 119.015625 317.015625 119.800781 311.351562 120 L 164.351562 120 C 160.015625 119.964844 155.484375 119.535156 150.75 118.699219 C 146.015625 117.867188 142.867188 116.566406 141.300781 114.800781 C 140.933594 113.867188 139.148438 111.949219 135.949219 109.050781 C 132.785156 106.148438 128.183594 104.515625 122.148438 104.148438 C 117.648438 104.148438 113.015625 105.484375 108.25 108.148438 C 106.984375 108.648438 104.199219 110.5 99.898438 113.699219 C 95.601562 116.867188 92.867188 120.714844 91.699219 125.25 L 91.648438 125.351562 L 91.648438 125.449219 C 91.316406 126.449219 91.851562 128.117188 93.25 130.449219 C 94.25 131.515625 95.550781 132.050781 97.148438 132.050781 C 98.050781 132.050781 99.015625 131.867188 100.050781 131.5 L 100.148438 131.449219 C 101.683594 130.816406 103.964844 130.035156 107 129.101562 C 110 128.132812 112.648438 127.617188 114.949219 127.550781 C 115.515625 127.550781 115.898438 127.582031 116.101562 127.648438 L 116.25 127.699219 L 116.5 127.699219 C 116.699219 127.601562 117.582031 127.933594 119.148438 128.699219 C 120.714844 129.464844 122.183594 131.265625 123.550781 134.101562 C 123.785156 134.632812 123.949219 135.949219 124.050781 138.050781 C 124.148438 140.148438 123.332031 142.050781 121.601562 143.75 L 103 149.300781 L 102.601562 149.75 C 101.867188 150.050781 101.285156 151.535156 100.851562 154.199219 C 100.683594 155.566406 101.550781 157.234375 103.449219 159.199219 L 103.800781 159.5 L 104.199219 159.648438 C 104.535156 159.882812 106.515625 160.515625 110.148438 161.550781 C 113.816406 162.617188 118.265625 163.214844 123.5 163.351562 C 126.367188 163.351562 129.050781 163.082031 131.550781 162.550781 L 131.601562 162.5 C 132.066406 162.535156 134.035156 161.765625 137.5 160.199219 C 140.933594 158.632812 144.214844 155.917969 147.351562 152.050781 C 148.050781 151.351562 149.964844 150.214844 153.101562 148.648438 C 156.234375 147.050781 160.25 146.082031 165.148438 145.75 L 311.5 145.75 C 311.535156 145.714844 311.984375 145.699219 312.851562 145.699219 C 315.015625 145.566406 318.550781 146 323.449219 147 C 328.351562 147.964844 332.832031 150.332031 336.898438 154.101562 C 337.464844 155.332031 339.433594 157.417969 342.800781 160.351562 C 346.132812 163.25 350.882812 164.882812 357.050781 165.25 C 361.785156 165.25 366.667969 163.832031 371.699219 161 C 373.066406 160.464844 376.035156 158.515625 380.601562 155.148438 C 385.132812 151.785156 388.035156 147.714844 389.300781 142.949219 L 389.300781 142.75 C 389.667969 141.714844 389.117188 139.984375 387.648438 137.550781 "/>
    <path style="stroke:none;fill-rule:evenodd;fill:rgb(28.235294%,28.235294%,29.019608%);fill-opacity:1" d="M 381.398438 138.851562 C 380.964844 139.082031 378.535156 139.933594 374.101562 141.398438 C 369.667969 142.832031 365.917969 143.367188 362.851562 143 C 362.648438 143.167969 361.433594 142.75 359.199219 141.75 C 356.964844 140.785156 354.917969 138.351562 353.050781 134.449219 C 352.816406 134.183594 352.601562 132.5 352.398438 129.398438 C 352.199219 126.300781 353.535156 123.464844 356.398438 120.898438 L 376 115.050781 C 376.199219 115.015625 376.535156 114.398438 377 113.199219 C 377.464844 112 376.851562 110.535156 375.148438 108.800781 C 374.648438 108.464844 371.332031 107.550781 365.199219 106.050781 C 359.101562 104.550781 353.25 104.5 347.648438 105.898438 C 347.351562 105.800781 345.464844 106.484375 342 107.949219 C 338.566406 109.417969 335.300781 112.199219 332.199219 116.300781 C 332.199219 116.566406 330.464844 117.601562 327 119.398438 C 323.5 121.199219 318.285156 122.234375 311.351562 122.5 L 164.351562 122.5 C 164.117188 122.535156 162.265625 122.449219 158.800781 122.25 C 155.332031 122.015625 151.617188 121.464844 147.648438 120.601562 C 143.714844 119.699219 140.917969 118.234375 139.25 116.199219 C 139.25 115.933594 138.132812 114.617188 135.898438 112.25 C 133.632812 109.882812 130.300781 108.132812 125.898438 107 C 121.464844 105.832031 115.984375 106.949219 109.449219 110.351562 C 108.882812 110.484375 106.484375 112.050781 102.25 115.050781 C 98.015625 118.050781 95.316406 121.582031 94.148438 125.648438 C 94.015625 125.917969 94.183594 126.75 94.648438 128.148438 C 95.117188 129.515625 96.648438 129.851562 99.25 129.148438 C 99.683594 128.917969 101.984375 128.117188 106.148438 126.75 C 110.316406 125.382812 113.832031 124.882812 116.699219 125.25 C 116.898438 125.117188 118.050781 125.5 120.148438 126.398438 C 122.25 127.300781 124.167969 129.601562 125.898438 133.300781 C 126.132812 133.566406 126.351562 135.148438 126.550781 138.050781 C 126.75 140.949219 125.5 143.601562 122.800781 146 L 104.351562 151.5 C 104.148438 151.566406 103.832031 152.148438 103.398438 153.25 C 102.964844 154.382812 103.550781 155.765625 105.148438 157.398438 C 105.449219 157.667969 108.199219 158.464844 113.398438 159.800781 C 118.632812 161.101562 124.5 161.214844 131 160.148438 C 131.300781 160.214844 133.066406 159.515625 136.300781 158.050781 C 139.566406 156.582031 142.632812 154.015625 145.5 150.351562 C 145.601562 150.082031 147.398438 148.949219 150.898438 146.949219 C 154.433594 144.949219 159.167969 143.714844 165.101562 143.25 L 311.351562 143.25 C 311.882812 142.984375 315.234375 143.234375 321.398438 144 C 327.566406 144.765625 333.398438 147.632812 338.898438 152.601562 C 338.898438 152.898438 340.101562 154.300781 342.5 156.800781 C 344.867188 159.332031 348.398438 161.199219 353.101562 162.398438 C 357.800781 163.632812 363.632812 162.449219 370.601562 158.851562 C 371.199219 158.683594 373.75 157.015625 378.25 153.851562 C 382.75 150.683594 385.617188 146.933594 386.851562 142.601562 C 386.984375 142.300781 386.800781 141.417969 386.300781 139.949219 C 385.832031 138.449219 384.199219 138.082031 381.398438 138.851562 "/>
    <path style="stroke:none;fill-rule:evenodd;fill:rgb(50.980392%,50.980392%,50.980392%);fill-opacity:1" d="M 357 160.75 C 351.632812 160.382812 347.566406 158.867188 344.800781 156.199219 C 342.035156 153.535156 340.632812 151.984375 340.601562 151.550781 L 340.5 151.351562 L 340.351562 151.199219 C 335.785156 146.832031 330.800781 144.035156 325.398438 142.800781 C 320 141.601562 315.800781 141.066406 312.800781 141.199219 C 311.964844 141.199219 311.449219 141.214844 311.25 141.25 L 165.050781 141.25 C 158.785156 141.714844 153.800781 142.984375 150.101562 145.050781 C 146.367188 147.117188 144.382812 148.367188 144.148438 148.800781 L 143.949219 148.949219 L 143.800781 149.148438 C 141.199219 152.484375 138.398438 154.832031 135.398438 156.199219 C 132.398438 157.535156 130.75 158.183594 130.449219 158.148438 C 128.316406 158.617188 126 158.851562 123.5 158.851562 C 119.300781 158.75 115.601562 158.300781 112.398438 157.5 C 109.199219 156.667969 107.132812 156.050781 106.199219 155.648438 C 105.699219 155.183594 105.417969 154.667969 105.351562 154.101562 C 105.351562 153.765625 105.417969 153.5 105.550781 153.300781 L 123.648438 147.898438 L 123.949219 147.648438 C 127.183594 144.816406 128.714844 141.734375 128.550781 138.398438 C 128.382812 135.066406 128.132812 133.148438 127.800781 132.648438 L 127.75 132.5 C 125.949219 128.632812 123.898438 126.101562 121.601562 124.898438 C 119.300781 123.734375 117.765625 123.167969 117 123.199219 C 116.367188 123.101562 115.667969 123.035156 114.898438 123 C 111.632812 123.167969 108.199219 123.867188 104.601562 125.101562 C 101 126.300781 98.949219 127.015625 98.449219 127.25 C 97.816406 127.449219 97.367188 127.550781 97.101562 127.550781 C 96.734375 127.515625 96.550781 127.464844 96.550781 127.398438 C 96.25 126.898438 96.117188 126.382812 96.148438 125.851562 C 96.917969 122.949219 98.949219 120.214844 102.25 117.648438 C 105.515625 115.050781 108.214844 113.214844 110.351562 112.148438 C 114.515625 109.851562 118.449219 108.699219 122.148438 108.699219 C 127.117188 109.035156 130.882812 110.417969 133.449219 112.851562 C 136.015625 115.285156 137.351562 116.765625 137.449219 117.300781 L 137.550781 117.398438 C 139.351562 119.632812 142.199219 121.265625 146.101562 122.300781 C 150 123.300781 153.765625 123.933594 157.398438 124.199219 C 161.035156 124.464844 163.332031 124.582031 164.300781 124.550781 L 311.351562 124.550781 C 318.582031 124.25 324.050781 123.167969 327.75 121.300781 C 331.449219 119.398438 333.382812 118.25 333.550781 117.851562 L 333.75 117.699219 L 333.898438 117.449219 C 336.667969 113.75 339.632812 111.214844 342.800781 109.851562 C 345.964844 108.484375 347.699219 107.832031 348 107.898438 L 348.148438 107.898438 L 348.25 107.851562 C 350.082031 107.214844 352.300781 106.898438 354.898438 106.898438 C 359.101562 107 363.050781 107.535156 366.75 108.5 C 370.449219 109.464844 372.882812 110.167969 374.050781 110.601562 C 374.582031 111.101562 374.898438 111.683594 375 112.351562 C 374.964844 112.75 374.882812 113.066406 374.75 113.300781 L 355.449219 119.050781 L 355.148438 119.25 C 351.75 122.25 350.132812 125.515625 350.300781 129.050781 C 350.464844 132.582031 350.734375 134.601562 351.101562 135.101562 L 351.148438 135.25 C 353.050781 139.351562 355.214844 142.015625 357.648438 143.25 C 360.082031 144.484375 361.699219 145.082031 362.5 145.050781 C 363.132812 145.183594 363.867188 145.25 364.699219 145.25 C 368.132812 145.082031 371.765625 144.351562 375.601562 143.050781 C 379.433594 141.785156 381.617188 141.015625 382.148438 140.75 C 382.683594 140.550781 383.167969 140.449219 383.601562 140.449219 C 384.066406 140.484375 384.300781 140.550781 384.300781 140.648438 C 384.632812 141.214844 384.785156 141.800781 384.75 142.398438 C 383.917969 145.5 381.75 148.433594 378.25 151.199219 C 374.75 153.964844 371.867188 155.917969 369.601562 157.050781 C 365.167969 159.515625 360.964844 160.75 357 160.75 "/>
    <path style="stroke:none;fill-rule:evenodd;fill:rgb(72.941176%,73.333333%,74.117647%);fill-opacity:1" d="M 143.800781 124.050781 C 136.199219 124.050781 128.816406 124.332031 121.648438 124.898438 C 123.917969 126.101562 125.964844 128.632812 127.800781 132.5 L 127.851562 132.648438 C 128.183594 133.117188 128.417969 135.015625 128.550781 138.351562 C 128.714844 141.714844 127.183594 144.816406 123.949219 147.648438 L 123.648438 147.851562 L 105.550781 153.25 C 105.417969 153.484375 105.351562 153.75 105.351562 154.050781 C 105.449219 154.648438 105.734375 155.167969 106.199219 155.601562 C 107.132812 156 109.199219 156.617188 112.398438 157.449219 C 115.601562 158.285156 119.300781 158.75 123.5 158.851562 C 126.035156 158.851562 128.367188 158.617188 130.5 158.148438 C 130.800781 158.183594 132.433594 157.515625 135.398438 156.148438 C 138.398438 154.816406 141.199219 152.484375 143.800781 149.148438 L 143.949219 148.949219 L 144.148438 148.75 C 144.417969 148.351562 146.398438 147.117188 150.101562 145.050781 C 153.800781 142.949219 158.800781 141.667969 165.101562 141.199219 L 233.949219 141.199219 C 222.949219 135.898438 209.734375 131.734375 194.300781 128.699219 C 178.832031 125.667969 162 124.117188 143.800781 124.050781 "/>
    <path style="stroke:none;fill-rule:evenodd;fill:rgb(72.941176%,73.333333%,74.117647%);fill-opacity:1" d="M 354.898438 106.898438 C 352.300781 106.898438 350.101562 107.214844 348.300781 107.851562 L 348.148438 107.898438 L 348.050781 107.898438 C 347.714844 107.832031 345.964844 108.484375 342.800781 109.851562 C 339.632812 111.214844 336.667969 113.75 333.898438 117.449219 L 333.75 117.699219 L 333.550781 117.851562 C 333.382812 118.25 331.449219 119.398438 327.75 121.300781 C 324.050781 123.167969 318.582031 124.25 311.351562 124.550781 L 274.449219 124.550781 C 295.851562 130.183594 321.300781 133.351562 350.800781 134.050781 C 350.332031 132.515625 350.214844 130.265625 350.449219 127.300781 C 350.714844 124.332031 352.285156 121.648438 355.148438 119.25 L 355.449219 119.050781 L 374.75 113.300781 C 374.917969 113.066406 375 112.75 375 112.351562 C 374.898438 111.683594 374.582031 111.101562 374.050781 110.601562 C 372.917969 110.167969 370.484375 109.464844 366.75 108.5 C 363.050781 107.535156 359.101562 107 354.898438 106.898438 "/>
    <path style="stroke:none;fill-rule:evenodd;fill:rgb(28.235294%,28.235294%,29.019608%);fill-opacity:1" d="M 345.851562 109.25 C 345.851562 109.25 345.5 109.382812 344.800781 109.648438 C 344.464844 109.785156 344.066406 109.964844 343.601562 110.199219 C 343.101562 110.398438 342.566406 110.683594 342 111.050781 C 340.800781 111.683594 339.535156 112.667969 338.199219 114 C 336.898438 115.332031 335.800781 117.066406 334.898438 119.199219 C 334.066406 121.332031 333.601562 123.734375 333.5 126.398438 C 333.398438 129.035156 333.632812 131.75 334.199219 134.550781 C 334.765625 137.382812 335.734375 140.148438 337.101562 142.851562 C 338.433594 145.550781 340.101562 148.050781 342.101562 150.351562 C 344.132812 152.683594 346.484375 154.535156 349.148438 155.898438 C 350.449219 156.566406 351.816406 157.066406 353.25 157.398438 C 353.949219 157.566406 354.648438 157.699219 355.351562 157.800781 C 356.082031 157.898438 356.800781 157.949219 357.5 157.949219 C 358.199219 157.984375 358.898438 157.964844 359.601562 157.898438 C 359.964844 157.898438 360.300781 157.882812 360.601562 157.851562 C 360.933594 157.785156 361.265625 157.699219 361.601562 157.601562 C 362.933594 157.300781 364.214844 156.917969 365.449219 156.449219 C 367.917969 155.515625 370.132812 154.449219 372.101562 153.25 C 373.066406 152.617188 373.984375 152 374.851562 151.398438 C 375.25 151.066406 375.648438 150.75 376.050781 150.449219 C 376.449219 150.148438 376.816406 149.851562 377.148438 149.550781 C 377.882812 148.917969 378.515625 148.316406 379.050781 147.75 C 379.648438 147.183594 380.167969 146.632812 380.601562 146.101562 C 381.464844 145.066406 382.101562 144.25 382.5 143.648438 C 382.933594 143.050781 383.148438 142.75 383.148438 142.75 C 383.148438 142.75 382.949219 143.050781 382.550781 143.648438 C 382.183594 144.316406 381.582031 145.183594 380.75 146.25 C 380.351562 146.785156 379.867188 147.351562 379.300781 147.949219 C 378.765625 148.582031 378.148438 149.214844 377.449219 149.851562 C 376.082031 151.183594 374.417969 152.5 372.449219 153.800781 C 370.484375 155.066406 368.25 156.214844 365.75 157.25 C 364.515625 157.75 363.214844 158.183594 361.851562 158.550781 C 361.484375 158.648438 361.132812 158.75 360.800781 158.851562 C 360.398438 158.882812 360.015625 158.917969 359.648438 158.949219 C 358.949219 159.015625 358.214844 159.035156 357.449219 159 C 356.714844 159 355.984375 158.949219 355.25 158.851562 C 354.484375 158.75 353.734375 158.617188 353 158.449219 C 351.5 158.117188 350.050781 157.601562 348.648438 156.898438 C 345.816406 155.464844 343.351562 153.550781 341.25 151.148438 C 339.148438 148.75 337.433594 146.132812 336.101562 143.300781 C 334.734375 140.535156 333.765625 137.683594 333.199219 134.75 C 332.066406 128.785156 332.433594 123.515625 334.300781 118.949219 C 335.265625 116.75 336.464844 115 337.898438 113.699219 C 339.300781 112.367188 340.632812 111.417969 341.898438 110.851562 C 342.5 110.515625 343.050781 110.25 343.550781 110.050781 C 344.015625 109.851562 344.433594 109.699219 344.800781 109.601562 C 345.464844 109.367188 345.816406 109.25 345.851562 109.25 "/>
    <path style="stroke:none;fill-rule:evenodd;fill:rgb(28.235294%,28.235294%,29.019608%);fill-opacity:1" d="M 144 144.398438 C 144 144.398438 144.648438 144.082031 145.949219 143.449219 C 147.25 142.816406 149.167969 142.082031 151.699219 141.25 C 152.933594 140.816406 154.332031 140.417969 155.898438 140.050781 C 156.667969 139.851562 157.484375 139.667969 158.351562 139.5 C 159.183594 139.332031 160.066406 139.183594 161 139.050781 C 161.898438 138.882812 162.832031 138.765625 163.800781 138.699219 C 164.800781 138.632812 165.816406 138.566406 166.851562 138.5 C 167.351562 138.464844 167.867188 138.433594 168.398438 138.398438 C 168.933594 138.398438 169.484375 138.398438 170.050781 138.398438 C 171.117188 138.398438 172.214844 138.382812 173.351562 138.351562 C 182.550781 138.316406 192.882812 138.265625 204.351562 138.199219 C 215.816406 138.167969 227.648438 138.132812 239.851562 138.101562 C 252.082031 138.132812 263.933594 138.167969 275.398438 138.199219 C 286.867188 138.265625 297.199219 138.316406 306.398438 138.351562 C 307.5 138.382812 308.601562 138.398438 309.699219 138.398438 C 310.234375 138.398438 310.765625 138.398438 311.300781 138.398438 C 311.832031 138.433594 312.367188 138.464844 312.898438 138.5 C 313.933594 138.566406 314.933594 138.632812 315.898438 138.699219 C 316.898438 138.765625 317.851562 138.882812 318.75 139.050781 C 319.683594 139.183594 320.566406 139.332031 321.398438 139.5 C 322.234375 139.667969 323.050781 139.851562 323.851562 140.050781 C 325.382812 140.417969 326.785156 140.816406 328.050781 141.25 C 330.582031 142.082031 332.5 142.816406 333.800781 143.449219 C 335.066406 144.082031 335.714844 144.398438 335.75 144.398438 C 335.714844 144.398438 335.050781 144.101562 333.75 143.5 C 332.449219 142.898438 330.535156 142.214844 328 141.449219 C 326.734375 141.050781 325.316406 140.683594 323.75 140.351562 C 322.984375 140.183594 322.183594 140.015625 321.351562 139.851562 C 320.484375 139.714844 319.601562 139.601562 318.699219 139.5 C 317.800781 139.367188 316.867188 139.265625 315.898438 139.199219 C 314.898438 139.167969 313.882812 139.132812 312.851562 139.101562 C 312.351562 139.066406 311.832031 139.050781 311.300781 139.050781 C 310.765625 139.050781 310.234375 139.050781 309.699219 139.050781 C 308.632812 139.050781 307.535156 139.050781 306.398438 139.050781 C 297.199219 139.117188 286.867188 139.183594 275.398438 139.25 C 263.933594 139.285156 252.082031 139.316406 239.851562 139.351562 C 227.648438 139.316406 215.816406 139.285156 204.351562 139.25 C 192.882812 139.183594 182.550781 139.117188 173.351562 139.050781 C 172.214844 139.050781 171.117188 139.050781 170.050781 139.050781 C 169.484375 139.050781 168.933594 139.050781 168.398438 139.050781 C 167.898438 139.050781 167.382812 139.066406 166.851562 139.101562 C 165.816406 139.132812 164.816406 139.167969 163.851562 139.199219 C 162.882812 139.265625 161.949219 139.367188 161.050781 139.5 C 160.117188 139.601562 159.234375 139.714844 158.398438 139.851562 C 157.566406 140.015625 156.75 140.183594 155.949219 140.351562 C 154.417969 140.683594 153.015625 141.050781 151.75 141.449219 C 149.214844 142.214844 147.285156 142.898438 145.949219 143.5 C 144.648438 144.101562 144 144.398438 144 144.398438 "/>
    <path style="stroke:none;fill-rule:evenodd;fill:rgb(28.235294%,28.235294%,29.019608%);fill-opacity:1" d="M 105.648438 152.5 C 105.683594 152.535156 106.433594 152.765625 107.898438 153.199219 C 109.332031 153.667969 111.316406 154.132812 113.851562 154.601562 C 115.117188 154.832031 116.464844 155 117.898438 155.101562 C 119.367188 155.199219 120.882812 155.214844 122.449219 155.148438 C 124.015625 155.082031 125.617188 154.882812 127.25 154.550781 C 128.015625 154.351562 128.800781 154.132812 129.601562 153.898438 C 130.398438 153.601562 131.183594 153.300781 131.949219 153 C 133.449219 152.332031 134.851562 151.484375 136.148438 150.449219 C 137.484375 149.484375 138.648438 148.398438 139.648438 147.199219 C 140.148438 146.601562 140.617188 145.984375 141.050781 145.351562 C 141.449219 144.75 141.816406 144.132812 142.148438 143.5 C 142.449219 142.832031 142.734375 142.199219 143 141.601562 C 143.234375 140.964844 143.433594 140.351562 143.601562 139.75 C 143.765625 139.117188 143.882812 138.515625 143.949219 137.949219 C 144.050781 137.382812 144.117188 136.851562 144.148438 136.351562 C 144.183594 135.851562 144.199219 135.367188 144.199219 134.898438 C 144.234375 134.699219 144.25 134.484375 144.25 134.25 C 144.214844 134.050781 144.199219 133.867188 144.199219 133.699219 C 144.101562 132.167969 144.050781 131.382812 144.050781 131.351562 C 144.050781 131.382812 144.183594 132.148438 144.449219 133.648438 C 144.484375 133.851562 144.515625 134.050781 144.550781 134.25 C 144.550781 134.449219 144.550781 134.667969 144.550781 134.898438 C 144.582031 135.367188 144.601562 135.851562 144.601562 136.351562 C 144.632812 136.882812 144.617188 137.449219 144.550781 138.050781 C 144.515625 138.351562 144.484375 138.648438 144.449219 138.949219 C 144.417969 139.25 144.351562 139.566406 144.25 139.898438 C 144.117188 140.535156 143.949219 141.183594 143.75 141.851562 C 143.515625 142.515625 143.265625 143.199219 143 143.898438 C 142.667969 144.566406 142.300781 145.25 141.898438 145.949219 C 141.464844 146.617188 141 147.265625 140.5 147.898438 C 140.234375 148.199219 139.964844 148.515625 139.699219 148.851562 C 139.398438 149.148438 139.101562 149.449219 138.800781 149.75 C 138.199219 150.351562 137.566406 150.898438 136.898438 151.398438 C 135.535156 152.5 134.050781 153.417969 132.449219 154.148438 C 131.617188 154.449219 130.800781 154.75 130 155.050781 C 129.167969 155.285156 128.332031 155.5 127.5 155.699219 C 125.800781 156.035156 124.132812 156.214844 122.5 156.25 C 120.867188 156.285156 119.316406 156.199219 117.851562 156 C 116.351562 155.800781 114.984375 155.566406 113.75 155.300781 C 111.183594 154.667969 109.199219 154.050781 107.800781 153.449219 C 106.398438 152.851562 105.683594 152.535156 105.648438 152.5 "/>
    <path style="stroke:none;fill-rule:evenodd;fill:rgb(28.235294%,28.235294%,29.019608%);fill-opacity:1" d="M 141.101562 126.5 C 141.101562 126.464844 140.933594 126.132812 140.601562 125.5 C 140.265625 124.832031 139.765625 123.984375 139.101562 122.949219 C 138.800781 122.449219 138.449219 121.917969 138.050781 121.351562 C 137.648438 120.785156 137.214844 120.199219 136.75 119.601562 C 136.285156 119.035156 135.785156 118.449219 135.25 117.851562 C 134.75 117.285156 134.199219 116.734375 133.601562 116.199219 L 132.75 115.398438 C 132.449219 115.132812 132.132812 114.882812 131.800781 114.648438 C 131.5 114.417969 131.199219 114.183594 130.898438 113.949219 C 130.601562 113.714844 130.285156 113.5 129.949219 113.300781 C 129.351562 112.898438 128.734375 112.550781 128.101562 112.25 C 127.800781 112.082031 127.515625 111.917969 127.25 111.75 C 126.949219 111.617188 126.667969 111.5 126.398438 111.398438 C 125.832031 111.132812 125.332031 110.917969 124.898438 110.75 C 124.398438 110.582031 123.984375 110.449219 123.648438 110.351562 C 122.984375 110.117188 122.632812 110 122.601562 110 C 122.601562 110 122.964844 110.035156 123.699219 110.101562 C 124.066406 110.167969 124.5 110.234375 125 110.300781 C 125.5 110.398438 126.050781 110.535156 126.648438 110.699219 C 126.949219 110.800781 127.25 110.898438 127.550781 111 C 127.882812 111.132812 128.199219 111.265625 128.5 111.398438 C 128.832031 111.535156 129.183594 111.683594 129.550781 111.851562 C 129.882812 111.984375 130.214844 112.167969 130.550781 112.398438 C 130.882812 112.566406 131.214844 112.765625 131.550781 113 C 131.882812 113.199219 132.214844 113.433594 132.550781 113.699219 C 132.882812 113.933594 133.214844 114.183594 133.550781 114.449219 L 134.449219 115.300781 C 135.050781 115.867188 135.617188 116.449219 136.148438 117.050781 C 136.683594 117.683594 137.183594 118.316406 137.648438 118.949219 C 138.515625 120.25 139.214844 121.464844 139.75 122.601562 C 140.25 123.765625 140.601562 124.699219 140.800781 125.398438 C 141.035156 126.101562 141.132812 126.464844 141.101562 126.5 "/>
    <path style="stroke:none;fill-rule:evenodd;fill:rgb(28.235294%,28.235294%,29.019608%);fill-opacity:1" d="M 125 128.101562 C 124.464844 127.367188 123.917969 126.648438 123.351562 125.949219 C 122.785156 125.285156 122.183594 124.632812 121.550781 124 C 120.949219 123.367188 120.300781 122.785156 119.601562 122.25 C 119.433594 122.117188 119.265625 122 119.101562 121.898438 C 118.933594 121.765625 118.75 121.648438 118.550781 121.550781 C 118.183594 121.351562 117.816406 121.183594 117.449219 121.050781 L 117.648438 121.101562 C 116.851562 121.167969 116.050781 121.265625 115.25 121.398438 C 114.417969 121.5 113.601562 121.617188 112.800781 121.75 C 112 121.882812 111.199219 122.015625 110.398438 122.148438 L 108 122.648438 L 105.601562 123.199219 C 104.800781 123.398438 104.015625 123.617188 103.25 123.851562 L 102.050781 124.199219 C 101.683594 124.300781 101.300781 124.433594 100.898438 124.601562 C 100.167969 124.898438 99.398438 125.183594 98.601562 125.449219 L 98.648438 125.449219 C 98.351562 125.617188 98.035156 125.734375 97.699219 125.800781 C 97.398438 125.898438 97.066406 125.917969 96.699219 125.851562 C 96.535156 125.785156 96.382812 125.699219 96.25 125.601562 C 96.117188 125.5 96.015625 125.367188 95.949219 125.199219 C 95.785156 124.933594 95.683594 124.632812 95.648438 124.300781 C 95.75 124.601562 95.882812 124.867188 96.050781 125.101562 C 96.148438 125.234375 96.265625 125.332031 96.398438 125.398438 C 96.5 125.464844 96.632812 125.515625 96.800781 125.550781 C 97.066406 125.582031 97.332031 125.550781 97.601562 125.449219 C 97.867188 125.316406 98.117188 125.167969 98.351562 125 L 98.398438 125 C 99.132812 124.601562 99.867188 124.214844 100.601562 123.851562 C 100.964844 123.648438 101.351562 123.484375 101.75 123.351562 L 102.949219 122.898438 L 104.101562 122.5 C 104.5 122.367188 104.898438 122.25 105.300781 122.148438 L 107.699219 121.449219 L 110.148438 120.949219 C 110.984375 120.785156 111.800781 120.648438 112.601562 120.550781 C 114.265625 120.285156 115.933594 120.101562 117.601562 120 L 117.699219 120 L 117.800781 120.050781 L 118.449219 120.351562 C 118.683594 120.449219 118.898438 120.566406 119.101562 120.699219 C 119.300781 120.832031 119.484375 120.964844 119.648438 121.101562 C 119.851562 121.234375 120.035156 121.382812 120.199219 121.550781 C 120.898438 122.148438 121.535156 122.816406 122.101562 123.550781 C 122.667969 124.25 123.183594 124.984375 123.648438 125.75 C 124.148438 126.484375 124.601562 127.265625 125 128.101562 "/>
    <path style="stroke:none;fill-rule:evenodd;fill:rgb(28.235294%,28.235294%,29.019608%);fill-opacity:1" d="M 349.851562 123.75 C 349.816406 123.75 349.851562 123.332031 349.949219 122.5 C 350.050781 122.132812 350.199219 121.683594 350.398438 121.148438 C 350.601562 120.617188 350.917969 120.050781 351.351562 119.449219 C 351.75 118.882812 352.25 118.332031 352.851562 117.800781 C 353.183594 117.566406 353.515625 117.316406 353.851562 117.050781 C 354.214844 116.851562 354.601562 116.632812 355 116.398438 C 355.765625 116 356.582031 115.667969 357.449219 115.398438 C 357.882812 115.234375 358.332031 115.101562 358.800781 115 L 360.101562 114.699219 C 361.898438 114.332031 363.632812 113.984375 365.300781 113.648438 C 366.964844 113.351562 368.484375 113.101562 369.851562 112.898438 C 371.183594 112.667969 372.117188 112.25 372.648438 111.648438 C 372.851562 111.351562 372.933594 111.082031 372.898438 110.851562 C 372.867188 110.648438 372.851562 110.550781 372.851562 110.550781 C 372.851562 110.550781 372.882812 110.648438 372.949219 110.851562 C 373.050781 111.082031 373.015625 111.398438 372.851562 111.800781 C 372.351562 112.601562 371.398438 113.199219 370 113.601562 C 368.667969 113.933594 367.183594 114.316406 365.550781 114.75 C 363.882812 115.148438 362.167969 115.550781 360.398438 115.949219 L 359.050781 116.199219 C 358.648438 116.300781 358.234375 116.417969 357.800781 116.550781 C 357 116.785156 356.214844 117.066406 355.449219 117.398438 C 355.082031 117.566406 354.734375 117.75 354.398438 117.949219 C 354.066406 118.148438 353.75 118.351562 353.449219 118.550781 C 352.851562 118.984375 352.332031 119.433594 351.898438 119.898438 C 351.433594 120.398438 351.066406 120.882812 350.800781 121.351562 C 350.535156 121.816406 350.332031 122.234375 350.199219 122.601562 C 349.933594 123.332031 349.816406 123.714844 349.851562 123.75 "/>
  </g>
  <g id="surface4">
    <text style="fill:rgb(0,0,0)" font-family="Helvetica" font-size="50" transform="matrix(1,0,0,1,60,215.25)" xml:space="preserve"><![CDATA[Tool Information]]></text>
    <text style="fill:rgb(130,130,130)" font-family="Helvetica" font-size="50" transform="matrix(1,0,0,1,139.3,266.1)" xml:space="preserve"><![CDATA[Standard]]></text>
  </g>
</svg>